<?xml version="1.0" standalone="no"?>
<!DOCTYPE svg PUBLIC "-//W3C//DTD SVG 20010904//EN"
 "http://www.w3.org/TR/2001/REC-SVG-20010904/DTD/svg10.dtd">
<svg version="1.0" xmlns="http://www.w3.org/2000/svg"
 width="700.000000pt" height="700.000000pt" viewBox="0 0 700.000000 700.000000"
 preserveAspectRatio="xMidYMid meet">
<metadata>
Created by potrace 1.14, written by Peter Selinger 2001-2017
</metadata>
<g transform="translate(0.000000,700.000000) scale(0.100000,-0.100000)"
fill="#000000" stroke="none">
<path d="M355 6986 c-158 -39 -289 -166 -329 -318 -16 -58 -17 -301 -14 -3189
l3 -3125 38 -76 c58 -118 141 -194 266 -242 l56 -21 3070 -3 c2062 -2 3096 1
3148 8 160 20 285 112 355 257 l37 78 3 3125 c3 2886 2 3130 -14 3188 -41 157
-179 287 -342 321 -81 17 -6208 14 -6277 -3z m3436 -956 c528 -111 949 -483
1117 -987 58 -172 67 -236 67 -478 0 -241 -10 -304 -77 -495 -126 -357 -404
-667 -750 -836 -97 -47 -271 -105 -370 -124 l-58 -11 0 -115 0 -114 85 0 85 0
0 -88 0 -89 -127 -6 c-164 -9 -367 -9 -521 0 l-122 6 0 89 0 88 80 0 80 0 0
115 0 114 -37 6 c-402 68 -772 314 -998 663 -246 381 -303 877 -150 1302 74
205 178 371 332 530 155 162 322 275 522 354 98 40 253 81 356 95 110 15 374
5 486 -19z m79 -4125 c0 -602 -1 -635 -18 -635 -10 0 -175 -74 -367 -165 -192
-91 -350 -165 -352 -165 -2 0 -3 360 -3 800 l0 800 370 0 370 0 0 -635z"/>
<path d="M3265 5700 c-575 -121 -964 -642 -914 -1225 51 -599 548 -1055 1150
-1055 649 0 1174 548 1146 1195 -13 297 -118 544 -321 753 -177 182 -387 296
-624 337 -119 21 -324 18 -437 -5z m353 -534 c17 -9 32 -21 32 -26 0 -16 -32
-41 -61 -47 -36 -7 -41 -15 -33 -47 4 -18 16 -27 51 -35 25 -7 66 -22 92 -35
45 -23 47 -23 69 -6 22 18 22 19 6 53 -45 94 54 91 142 -5 89 -97 77 -174 -20
-123 -35 19 -33 19 -46 -4 -8 -15 -3 -29 25 -71 29 -43 46 -86 71 -177 2 -7
14 -13 27 -13 17 0 28 9 38 32 20 45 46 58 65 33 53 -72 37 -255 -24 -263 -18
-3 -26 5 -42 42 -17 40 -22 45 -41 38 -16 -6 -26 -23 -36 -63 -8 -29 -25 -73
-39 -97 l-26 -44 27 -28 c27 -28 29 -28 57 -14 16 8 39 14 51 12 52 -7 5 -119
-71 -172 -56 -38 -87 -47 -108 -32 -17 13 -17 16 -1 57 17 43 17 44 -7 68
l-24 24 -49 -32 c-26 -18 -78 -41 -115 -52 -67 -20 -68 -22 -68 -55 0 -27 5
-35 24 -40 36 -9 63 -41 50 -61 -28 -44 -192 -56 -249 -19 -38 25 -30 57 20
75 22 8 41 15 43 16 1 1 -1 16 -4 33 -6 28 -13 33 -62 48 -62 17 -147 58 -157
74 -9 14 -17 12 -44 -10 -23 -20 -23 -21 -7 -62 15 -36 15 -43 2 -56 -30 -31
-127 27 -177 106 -51 81 -33 118 43 89 39 -16 41 -16 59 6 23 28 23 26 -5 84
-14 26 -30 69 -36 96 -10 38 -16 47 -35 47 -16 0 -26 -10 -38 -41 -13 -33 -20
-40 -39 -37 -35 5 -53 52 -53 138 1 90 23 143 58 138 16 -2 26 -15 37 -46 23
-68 47 -55 79 43 14 45 41 101 58 125 30 40 31 45 17 61 -14 15 -18 16 -42 3
-63 -33 -92 -9 -66 54 29 70 115 142 169 142 34 0 42 -24 21 -68 -16 -34 -16
-36 2 -54 18 -19 20 -18 69 6 28 14 74 31 102 38 48 11 51 13 51 43 0 27 -4
33 -27 38 -16 3 -37 13 -48 21 -16 12 -18 18 -9 33 26 42 183 54 252 19z"/>
</g>
</svg>
