<?xml version="1.0" encoding="UTF-8"?><svg xmlns="http://www.w3.org/2000/svg" xmlns:xlink="http://www.w3.org/1999/xlink" contentScriptType="text/ecmascript" width="375pt" zoomAndPan="magnify" contentStyleType="text/css" viewBox="0 0 375 374.999991" height="374.999991pt" preserveAspectRatio="xMidYMid meet" version="1.2"><defs><clipPath xml:id="clip1" id="clip1"><path d="M 107.476562 50.210938 L 267.226562 50.210938 L 267.226562 209.960938 L 107.476562 209.960938 Z M 107.476562 50.210938 "/></clipPath><clipPath xml:id="clip2" id="clip2"><path d="M 112.734375 55.46875 L 261.984375 55.46875 L 261.984375 204.71875 L 112.734375 204.71875 Z M 112.734375 55.46875 "/></clipPath></defs><g xml:id="surface1" id="surface1"><path style=" stroke:none;fill-rule:nonzero;fill:rgb(16.079712%,16.859436%,17.248535%);fill-opacity:1;" d="M 350.3125 374.25 L 24.738281 374.25 C 11.328125 374.25 0.398438 363.324219 0.398438 349.914062 L 0.398438 24.335938 C 0.398438 10.925781 11.328125 0 24.738281 0 L 350.3125 0 C 363.722656 0 374.648438 10.925781 374.648438 24.335938 L 374.648438 349.914062 C 374.648438 363.324219 363.722656 374.25 350.3125 374.25 Z M 350.3125 374.25 "/><path style=" stroke:none;fill-rule:nonzero;fill:rgb(100%,75.689697%,2.749634%);fill-opacity:1;" d="M 187.398438 105.757812 C 186.601562 105.757812 185.804688 105.796875 185.011719 105.878906 C 184.214844 105.957031 183.425781 106.070312 182.644531 106.226562 C 181.859375 106.382812 181.085938 106.578125 180.324219 106.808594 C 179.558594 107.039062 178.808594 107.308594 178.070312 107.613281 C 177.332031 107.921875 176.613281 108.261719 175.910156 108.636719 C 175.203125 109.015625 174.519531 109.425781 173.855469 109.867188 C 173.195312 110.3125 172.554688 110.785156 171.9375 111.292969 C 171.320312 111.800781 170.726562 112.335938 170.164062 112.898438 C 169.597656 113.464844 169.0625 114.054688 168.558594 114.671875 C 168.050781 115.289062 167.574219 115.929688 167.132812 116.59375 C 166.6875 117.257812 166.277344 117.941406 165.902344 118.644531 C 165.527344 119.347656 165.183594 120.070312 164.878906 120.808594 C 164.574219 121.542969 164.304688 122.296875 164.074219 123.058594 C 163.84375 123.824219 163.648438 124.597656 163.492188 125.378906 C 163.335938 126.164062 163.21875 126.949219 163.140625 127.746094 C 163.0625 128.539062 163.023438 129.335938 163.023438 130.132812 C 163.023438 130.933594 163.0625 131.730469 163.140625 132.523438 C 163.21875 133.316406 163.335938 134.105469 163.492188 134.890625 C 163.648438 135.671875 163.84375 136.445312 164.074219 137.210938 C 164.304688 137.972656 164.574219 138.726562 164.878906 139.460938 C 165.183594 140.199219 165.527344 140.921875 165.902344 141.625 C 166.277344 142.328125 166.6875 143.011719 167.132812 143.675781 C 167.574219 144.339844 168.050781 144.980469 168.558594 145.597656 C 169.0625 146.214844 169.597656 146.804688 170.164062 147.371094 C 170.726562 147.933594 171.320312 148.46875 171.9375 148.976562 C 172.554688 149.484375 173.195312 149.957031 173.855469 150.402344 C 174.519531 150.84375 175.203125 151.253906 175.910156 151.632812 C 176.613281 152.007812 177.332031 152.347656 178.070312 152.652344 C 178.808594 152.960938 179.558594 153.226562 180.324219 153.460938 C 181.085938 153.691406 181.859375 153.886719 182.644531 154.042969 C 183.425781 154.195312 184.214844 154.3125 185.011719 154.390625 C 185.804688 154.46875 186.601562 154.507812 187.398438 154.507812 C 188.199219 154.507812 188.992188 154.46875 189.789062 154.390625 C 190.582031 154.3125 191.371094 154.195312 192.15625 154.042969 C 192.9375 153.886719 193.710938 153.691406 194.476562 153.460938 C 195.238281 153.226562 195.988281 152.960938 196.726562 152.652344 C 197.464844 152.347656 198.183594 152.007812 198.890625 151.632812 C 199.59375 151.253906 200.277344 150.84375 200.941406 150.402344 C 201.605469 149.957031 202.246094 149.484375 202.863281 148.976562 C 203.480469 148.46875 204.070312 147.933594 204.636719 147.371094 C 205.199219 146.804688 205.734375 146.214844 206.242188 145.597656 C 206.746094 144.980469 207.222656 144.339844 207.667969 143.675781 C 208.109375 143.011719 208.519531 142.328125 208.894531 141.625 C 209.273438 140.921875 209.613281 140.199219 209.917969 139.460938 C 210.222656 138.726562 210.492188 137.972656 210.726562 137.210938 C 210.957031 136.445312 211.148438 135.671875 211.304688 134.890625 C 211.460938 134.105469 211.578125 133.316406 211.65625 132.523438 C 211.734375 131.730469 211.773438 130.933594 211.773438 130.132812 C 211.773438 129.335938 211.734375 128.539062 211.65625 127.746094 C 211.578125 126.949219 211.460938 126.164062 211.304688 125.378906 C 211.148438 124.597656 210.957031 123.824219 210.726562 123.058594 C 210.492188 122.296875 210.222656 121.542969 209.917969 120.808594 C 209.613281 120.070312 209.273438 119.347656 208.894531 118.644531 C 208.519531 117.941406 208.109375 117.257812 207.667969 116.59375 C 207.222656 115.929688 206.746094 115.289062 206.242188 114.671875 C 205.734375 114.054688 205.199219 113.464844 204.636719 112.898438 C 204.070312 112.335938 203.480469 111.800781 202.863281 111.292969 C 202.246094 110.785156 201.605469 110.3125 200.941406 109.867188 C 200.277344 109.425781 199.59375 109.015625 198.890625 108.636719 C 198.183594 108.261719 197.464844 107.921875 196.726562 107.613281 C 195.988281 107.308594 195.238281 107.039062 194.476562 106.808594 C 193.710938 106.578125 192.9375 106.382812 192.15625 106.226562 C 191.371094 106.070312 190.582031 105.957031 189.789062 105.878906 C 188.992188 105.796875 188.199219 105.757812 187.398438 105.757812 Z M 187.398438 105.757812 "/><path style=" stroke:none;fill-rule:nonzero;fill:rgb(100%,75.689697%,2.749634%);fill-opacity:1;" d="M 187.679688 96.867188 C 187.164062 96.867188 186.652344 96.886719 186.144531 96.921875 C 185.636719 96.960938 185.144531 97.019531 184.667969 97.09375 C 184.191406 97.167969 183.734375 97.261719 183.304688 97.371094 C 182.875 97.480469 182.476562 97.605469 182.113281 97.746094 C 181.746094 97.882812 181.421875 98.035156 181.132812 98.199219 C 180.847656 98.363281 180.601562 98.535156 180.40625 98.71875 C 180.207031 98.898438 180.058594 99.085938 179.957031 99.28125 C 179.855469 99.472656 179.804688 99.667969 179.804688 99.867188 C 179.804688 100.0625 179.855469 100.257812 179.957031 100.449219 C 180.058594 100.644531 180.207031 100.832031 180.40625 101.015625 C 180.601562 101.195312 180.847656 101.367188 181.132812 101.53125 C 181.421875 101.695312 181.746094 101.847656 182.113281 101.988281 C 182.476562 102.125 182.875 102.25 183.304688 102.359375 C 183.734375 102.46875 184.191406 102.5625 184.667969 102.636719 C 185.144531 102.710938 185.636719 102.769531 186.144531 102.808594 C 186.652344 102.847656 187.164062 102.867188 187.679688 102.867188 C 188.199219 102.867188 188.710938 102.847656 189.21875 102.808594 C 189.722656 102.769531 190.21875 102.710938 190.695312 102.636719 C 191.171875 102.5625 191.625 102.46875 192.054688 102.359375 C 192.484375 102.25 192.882812 102.125 193.25 101.988281 C 193.613281 101.847656 193.941406 101.695312 194.230469 101.53125 C 194.515625 101.367188 194.757812 101.195312 194.957031 101.015625 C 195.15625 100.832031 195.304688 100.644531 195.40625 100.449219 C 195.503906 100.257812 195.554688 100.0625 195.554688 99.867188 C 195.554688 99.667969 195.503906 99.472656 195.40625 99.28125 C 195.304688 99.085938 195.15625 98.898438 194.957031 98.71875 C 194.757812 98.535156 194.515625 98.363281 194.230469 98.199219 C 193.941406 98.035156 193.613281 97.882812 193.25 97.746094 C 192.882812 97.605469 192.484375 97.480469 192.054688 97.371094 C 191.625 97.261719 191.171875 97.167969 190.695312 97.09375 C 190.21875 97.019531 189.722656 96.960938 189.21875 96.921875 C 188.710938 96.886719 188.199219 96.867188 187.679688 96.867188 Z M 187.679688 96.867188 "/><path style=" stroke:none;fill-rule:nonzero;fill:rgb(100%,75.689697%,2.749634%);fill-opacity:1;" d="M 190.621094 105.941406 C 190.621094 105.425781 190.601562 104.910156 190.566406 104.40625 C 190.527344 103.898438 190.46875 103.40625 190.394531 102.925781 C 190.320312 102.449219 190.226562 101.996094 190.117188 101.566406 C 190.007812 101.136719 189.882812 100.738281 189.742188 100.371094 C 189.605469 100.007812 189.453125 99.679688 189.289062 99.394531 C 189.125 99.105469 188.953125 98.863281 188.769531 98.664062 C 188.589844 98.46875 188.402344 98.316406 188.207031 98.21875 C 188.015625 98.117188 187.820312 98.066406 187.621094 98.066406 C 187.425781 98.066406 187.230469 98.117188 187.039062 98.21875 C 186.84375 98.316406 186.65625 98.46875 186.472656 98.664062 C 186.292969 98.863281 186.121094 99.105469 185.957031 99.394531 C 185.792969 99.679688 185.640625 100.007812 185.5 100.371094 C 185.363281 100.738281 185.238281 101.136719 185.128906 101.566406 C 185.019531 101.996094 184.925781 102.449219 184.851562 102.925781 C 184.777344 103.40625 184.71875 103.898438 184.679688 104.40625 C 184.640625 104.910156 184.621094 105.425781 184.621094 105.941406 C 184.621094 106.457031 184.640625 106.96875 184.679688 107.476562 C 184.71875 107.984375 184.777344 108.476562 184.851562 108.953125 C 184.925781 109.433594 185.019531 109.886719 185.128906 110.316406 C 185.238281 110.746094 185.363281 111.144531 185.5 111.507812 C 185.640625 111.875 185.792969 112.203125 185.957031 112.488281 C 186.121094 112.777344 186.292969 113.019531 186.472656 113.214844 C 186.65625 113.414062 186.84375 113.5625 187.039062 113.664062 C 187.230469 113.765625 187.425781 113.816406 187.621094 113.816406 C 187.820312 113.816406 188.015625 113.765625 188.207031 113.664062 C 188.402344 113.5625 188.589844 113.414062 188.769531 113.214844 C 188.953125 113.019531 189.125 112.777344 189.289062 112.488281 C 189.453125 112.203125 189.605469 111.875 189.742188 111.507812 C 189.882812 111.144531 190.007812 110.746094 190.117188 110.316406 C 190.226562 109.886719 190.320312 109.433594 190.394531 108.953125 C 190.46875 108.476562 190.527344 107.984375 190.566406 107.476562 C 190.601562 106.96875 190.621094 106.457031 190.621094 105.941406 Z M 190.621094 105.941406 "/><path style=" stroke:none;fill-rule:nonzero;fill:rgb(100%,75.689697%,2.749634%);fill-opacity:1;" d="M 187.472656 164.042969 C 187.976562 164.042969 188.480469 164.023438 188.976562 163.980469 C 189.476562 163.941406 189.957031 163.878906 190.425781 163.796875 C 190.894531 163.71875 191.339844 163.617188 191.761719 163.5 C 192.183594 163.382812 192.574219 163.25 192.929688 163.101562 C 193.289062 162.949219 193.609375 162.789062 193.890625 162.613281 C 194.171875 162.4375 194.410156 162.25 194.605469 162.054688 C 194.800781 161.863281 194.945312 161.660156 195.042969 161.453125 C 195.144531 161.246094 195.191406 161.035156 195.191406 160.824219 C 195.191406 160.613281 195.144531 160.40625 195.042969 160.199219 C 194.945312 159.992188 194.800781 159.789062 194.605469 159.59375 C 194.410156 159.398438 194.171875 159.214844 193.890625 159.039062 C 193.609375 158.863281 193.289062 158.699219 192.929688 158.550781 C 192.574219 158.402344 192.183594 158.269531 191.761719 158.152344 C 191.339844 158.03125 190.894531 157.933594 190.425781 157.851562 C 189.957031 157.773438 189.476562 157.710938 188.976562 157.671875 C 188.480469 157.628906 187.976562 157.609375 187.472656 157.609375 C 186.964844 157.609375 186.460938 157.628906 185.964844 157.671875 C 185.46875 157.710938 184.984375 157.773438 184.515625 157.851562 C 184.046875 157.933594 183.601562 158.03125 183.179688 158.152344 C 182.761719 158.269531 182.371094 158.402344 182.011719 158.550781 C 181.652344 158.699219 181.332031 158.863281 181.050781 159.039062 C 180.769531 159.214844 180.53125 159.398438 180.335938 159.59375 C 180.144531 159.789062 179.996094 159.992188 179.898438 160.199219 C 179.800781 160.40625 179.75 160.613281 179.75 160.824219 C 179.75 161.035156 179.800781 161.246094 179.898438 161.453125 C 179.996094 161.660156 180.144531 161.863281 180.335938 162.054688 C 180.53125 162.25 180.769531 162.4375 181.050781 162.613281 C 181.332031 162.789062 181.652344 162.949219 182.011719 163.101562 C 182.371094 163.25 182.761719 163.382812 183.179688 163.5 C 183.601562 163.617188 184.046875 163.71875 184.515625 163.796875 C 184.984375 163.878906 185.46875 163.941406 185.964844 163.980469 C 186.460938 164.023438 186.964844 164.042969 187.472656 164.042969 Z M 187.472656 164.042969 "/><path style=" stroke:none;fill-rule:nonzero;fill:rgb(100%,75.689697%,2.749634%);fill-opacity:1;" d="M 184.386719 155.125 C 184.386719 155.632812 184.40625 156.132812 184.445312 156.632812 C 184.488281 157.128906 184.550781 157.613281 184.628906 158.082031 C 184.710938 158.546875 184.808594 158.992188 184.925781 159.414062 C 185.042969 159.835938 185.179688 160.226562 185.328125 160.585938 C 185.476562 160.945312 185.640625 161.265625 185.816406 161.546875 C 185.992188 161.828125 186.175781 162.066406 186.371094 162.257812 C 186.566406 162.453125 186.765625 162.597656 186.972656 162.699219 C 187.179688 162.796875 187.390625 162.847656 187.601562 162.847656 C 187.8125 162.847656 188.023438 162.796875 188.230469 162.699219 C 188.4375 162.597656 188.636719 162.453125 188.832031 162.257812 C 189.027344 162.066406 189.214844 161.828125 189.390625 161.546875 C 189.566406 161.265625 189.726562 160.945312 189.878906 160.585938 C 190.027344 160.226562 190.160156 159.835938 190.277344 159.414062 C 190.394531 158.992188 190.492188 158.546875 190.574219 158.082031 C 190.65625 157.613281 190.714844 157.128906 190.757812 156.632812 C 190.796875 156.132812 190.820312 155.632812 190.820312 155.125 C 190.820312 154.617188 190.796875 154.117188 190.757812 153.617188 C 190.714844 153.121094 190.65625 152.640625 190.574219 152.171875 C 190.492188 151.703125 190.394531 151.257812 190.277344 150.835938 C 190.160156 150.414062 190.027344 150.023438 189.878906 149.664062 C 189.726562 149.308594 189.566406 148.988281 189.390625 148.707031 C 189.214844 148.421875 189.027344 148.1875 188.832031 147.992188 C 188.636719 147.796875 188.4375 147.652344 188.230469 147.550781 C 188.023438 147.453125 187.8125 147.402344 187.601562 147.402344 C 187.390625 147.402344 187.179688 147.453125 186.972656 147.550781 C 186.765625 147.652344 186.566406 147.796875 186.371094 147.992188 C 186.175781 148.1875 185.992188 148.421875 185.816406 148.707031 C 185.640625 148.988281 185.476562 149.308594 185.328125 149.664062 C 185.179688 150.023438 185.042969 150.414062 184.925781 150.835938 C 184.808594 151.257812 184.710938 151.703125 184.628906 152.171875 C 184.550781 152.640625 184.488281 153.121094 184.445312 153.617188 C 184.40625 154.117188 184.386719 154.617188 184.386719 155.125 Z M 184.386719 155.125 "/><path style=" stroke:none;fill-rule:nonzero;fill:rgb(100%,75.689697%,2.749634%);fill-opacity:1;" d="M 220.265625 130.261719 C 220.265625 129.753906 220.246094 129.25 220.203125 128.753906 C 220.164062 128.257812 220.101562 127.773438 220.019531 127.304688 C 219.941406 126.835938 219.839844 126.390625 219.722656 125.972656 C 219.605469 125.550781 219.472656 125.160156 219.324219 124.800781 C 219.175781 124.441406 219.011719 124.121094 218.835938 123.839844 C 218.660156 123.558594 218.476562 123.320312 218.28125 123.125 C 218.085938 122.933594 217.882812 122.785156 217.675781 122.6875 C 217.46875 122.589844 217.261719 122.539062 217.050781 122.539062 C 216.835938 122.539062 216.628906 122.589844 216.421875 122.6875 C 216.214844 122.785156 216.011719 122.933594 215.816406 123.125 C 215.621094 123.320312 215.4375 123.558594 215.261719 123.839844 C 215.085938 124.121094 214.921875 124.441406 214.773438 124.800781 C 214.625 125.160156 214.492188 125.550781 214.375 125.972656 C 214.257812 126.390625 214.15625 126.835938 214.078125 127.304688 C 213.996094 127.773438 213.933594 128.257812 213.894531 128.753906 C 213.851562 129.25 213.832031 129.753906 213.832031 130.261719 C 213.832031 130.765625 213.851562 131.269531 213.894531 131.765625 C 213.933594 132.265625 213.996094 132.746094 214.078125 133.214844 C 214.15625 133.683594 214.257812 134.128906 214.375 134.550781 C 214.492188 134.972656 214.625 135.363281 214.773438 135.71875 C 214.921875 136.078125 215.085938 136.398438 215.261719 136.679688 C 215.4375 136.960938 215.621094 137.199219 215.816406 137.394531 C 216.011719 137.589844 216.214844 137.734375 216.421875 137.832031 C 216.628906 137.933594 216.835938 137.980469 217.050781 137.980469 C 217.261719 137.980469 217.46875 137.933594 217.675781 137.832031 C 217.882812 137.734375 218.085938 137.589844 218.28125 137.394531 C 218.476562 137.199219 218.660156 136.960938 218.835938 136.679688 C 219.011719 136.398438 219.175781 136.078125 219.324219 135.71875 C 219.472656 135.363281 219.605469 134.972656 219.722656 134.550781 C 219.839844 134.128906 219.941406 133.683594 220.019531 133.214844 C 220.101562 132.746094 220.164062 132.265625 220.203125 131.765625 C 220.246094 131.269531 220.265625 130.765625 220.265625 130.261719 Z M 220.265625 130.261719 "/><path style=" stroke:none;fill-rule:nonzero;fill:rgb(100%,75.689697%,2.749634%);fill-opacity:1;" d="M 211.347656 133.347656 C 211.855469 133.347656 212.359375 133.328125 212.855469 133.285156 C 213.351562 133.242188 213.835938 133.183594 214.304688 133.101562 C 214.773438 133.019531 215.21875 132.921875 215.636719 132.804688 C 216.058594 132.6875 216.449219 132.554688 216.808594 132.40625 C 217.167969 132.253906 217.488281 132.09375 217.769531 131.917969 C 218.050781 131.742188 218.289062 131.554688 218.484375 131.359375 C 218.675781 131.164062 218.824219 130.964844 218.921875 130.757812 C 219.019531 130.550781 219.070312 130.339844 219.070312 130.128906 C 219.070312 129.917969 219.019531 129.710938 218.921875 129.503906 C 218.824219 129.296875 218.675781 129.09375 218.484375 128.898438 C 218.289062 128.703125 218.050781 128.519531 217.769531 128.34375 C 217.488281 128.167969 217.167969 128.003906 216.808594 127.855469 C 216.449219 127.707031 216.058594 127.570312 215.636719 127.453125 C 215.21875 127.335938 214.773438 127.238281 214.304688 127.15625 C 213.835938 127.078125 213.351562 127.015625 212.855469 126.972656 C 212.359375 126.933594 211.855469 126.914062 211.347656 126.914062 C 210.84375 126.914062 210.339844 126.933594 209.84375 126.972656 C 209.34375 127.015625 208.863281 127.078125 208.394531 127.15625 C 207.925781 127.238281 207.480469 127.335938 207.058594 127.453125 C 206.636719 127.570312 206.246094 127.707031 205.890625 127.855469 C 205.53125 128.003906 205.210938 128.167969 204.929688 128.34375 C 204.648438 128.519531 204.410156 128.703125 204.214844 128.898438 C 204.019531 129.09375 203.875 129.296875 203.777344 129.503906 C 203.675781 129.710938 203.628906 129.917969 203.628906 130.128906 C 203.628906 130.339844 203.675781 130.550781 203.777344 130.757812 C 203.875 130.964844 204.019531 131.164062 204.214844 131.359375 C 204.410156 131.554688 204.648438 131.742188 204.929688 131.917969 C 205.210938 132.09375 205.53125 132.253906 205.890625 132.40625 C 206.246094 132.554688 206.636719 132.6875 207.058594 132.804688 C 207.480469 132.921875 207.925781 133.019531 208.394531 133.101562 C 208.863281 133.183594 209.34375 133.242188 209.84375 133.285156 C 210.339844 133.328125 210.84375 133.347656 211.347656 133.347656 Z M 211.347656 133.347656 "/><path style=" stroke:none;fill-rule:nonzero;fill:rgb(100%,75.689697%,2.749634%);fill-opacity:1;" d="M 154.734375 130.203125 C 154.734375 130.710938 154.753906 131.214844 154.792969 131.710938 C 154.835938 132.207031 154.898438 132.691406 154.976562 133.160156 C 155.058594 133.628906 155.15625 134.074219 155.273438 134.496094 C 155.390625 134.914062 155.527344 135.304688 155.675781 135.664062 C 155.824219 136.023438 155.988281 136.34375 156.164062 136.625 C 156.339844 136.90625 156.523438 137.144531 156.71875 137.339844 C 156.914062 137.53125 157.113281 137.679688 157.320312 137.777344 C 157.53125 137.875 157.738281 137.925781 157.949219 137.925781 C 158.160156 137.925781 158.371094 137.875 158.578125 137.777344 C 158.785156 137.679688 158.984375 137.53125 159.179688 137.339844 C 159.375 137.144531 159.5625 136.90625 159.738281 136.625 C 159.914062 136.34375 160.074219 136.023438 160.226562 135.664062 C 160.375 135.304688 160.507812 134.914062 160.625 134.496094 C 160.742188 134.074219 160.839844 133.628906 160.921875 133.160156 C 161.003906 132.691406 161.0625 132.207031 161.105469 131.710938 C 161.148438 131.214844 161.167969 130.710938 161.167969 130.203125 C 161.167969 129.699219 161.148438 129.195312 161.105469 128.699219 C 161.0625 128.199219 161.003906 127.71875 160.921875 127.25 C 160.839844 126.78125 160.742188 126.335938 160.625 125.914062 C 160.507812 125.492188 160.375 125.101562 160.226562 124.746094 C 160.074219 124.386719 159.914062 124.066406 159.738281 123.785156 C 159.5625 123.503906 159.375 123.265625 159.179688 123.070312 C 158.984375 122.875 158.785156 122.730469 158.578125 122.632812 C 158.371094 122.53125 158.160156 122.484375 157.949219 122.484375 C 157.738281 122.484375 157.53125 122.53125 157.320312 122.632812 C 157.113281 122.730469 156.914062 122.875 156.71875 123.070312 C 156.523438 123.265625 156.339844 123.503906 156.164062 123.785156 C 155.988281 124.066406 155.824219 124.386719 155.675781 124.746094 C 155.527344 125.101562 155.390625 125.492188 155.273438 125.914062 C 155.15625 126.335938 155.058594 126.78125 154.976562 127.25 C 154.898438 127.71875 154.835938 128.199219 154.792969 128.699219 C 154.753906 129.195312 154.734375 129.699219 154.734375 130.203125 Z M 154.734375 130.203125 "/><path style=" stroke:none;fill-rule:nonzero;fill:rgb(100%,75.689697%,2.749634%);fill-opacity:1;" d="M 163.648438 127.117188 C 163.144531 127.117188 162.640625 127.136719 162.144531 127.179688 C 161.644531 127.222656 161.164062 127.28125 160.695312 127.363281 C 160.226562 127.445312 159.78125 127.542969 159.359375 127.660156 C 158.9375 127.777344 158.546875 127.910156 158.191406 128.058594 C 157.832031 128.210938 157.511719 128.371094 157.230469 128.546875 C 156.949219 128.722656 156.710938 128.910156 156.515625 129.105469 C 156.324219 129.300781 156.175781 129.5 156.078125 129.707031 C 155.976562 129.914062 155.929688 130.125 155.929688 130.335938 C 155.929688 130.546875 155.976562 130.753906 156.078125 130.960938 C 156.175781 131.171875 156.324219 131.371094 156.515625 131.566406 C 156.710938 131.761719 156.949219 131.945312 157.230469 132.121094 C 157.511719 132.296875 157.832031 132.460938 158.191406 132.609375 C 158.546875 132.757812 158.9375 132.894531 159.359375 133.011719 C 159.78125 133.128906 160.226562 133.226562 160.695312 133.308594 C 161.164062 133.386719 161.644531 133.449219 162.144531 133.492188 C 162.640625 133.53125 163.144531 133.550781 163.648438 133.550781 C 164.15625 133.550781 164.660156 133.53125 165.15625 133.492188 C 165.652344 133.449219 166.136719 133.386719 166.605469 133.308594 C 167.074219 133.226562 167.519531 133.128906 167.941406 133.011719 C 168.359375 132.894531 168.75 132.757812 169.109375 132.609375 C 169.46875 132.460938 169.789062 132.296875 170.070312 132.121094 C 170.351562 131.945312 170.589844 131.761719 170.785156 131.566406 C 170.976562 131.371094 171.125 131.171875 171.222656 130.960938 C 171.320312 130.753906 171.371094 130.546875 171.371094 130.335938 C 171.371094 130.125 171.320312 129.914062 171.222656 129.707031 C 171.125 129.5 170.976562 129.300781 170.785156 129.105469 C 170.589844 128.910156 170.351562 128.722656 170.070312 128.546875 C 169.789062 128.371094 169.46875 128.210938 169.109375 128.058594 C 168.75 127.910156 168.359375 127.777344 167.941406 127.660156 C 167.519531 127.542969 167.074219 127.445312 166.605469 127.363281 C 166.136719 127.28125 165.652344 127.222656 165.15625 127.179688 C 164.660156 127.136719 164.15625 127.117188 163.648438 127.117188 Z M 163.648438 127.117188 "/><path style=" stroke:none;fill-rule:nonzero;fill:rgb(100%,75.689697%,2.749634%);fill-opacity:1;" d="M 212.339844 153.753906 C 212.699219 153.394531 213.039062 153.023438 213.363281 152.644531 C 213.683594 152.261719 213.984375 151.878906 214.257812 151.488281 C 214.53125 151.101562 214.777344 150.714844 214.992188 150.335938 C 215.207031 149.953125 215.386719 149.585938 215.535156 149.226562 C 215.683594 148.867188 215.796875 148.523438 215.871094 148.203125 C 215.945312 147.878906 215.980469 147.578125 215.980469 147.304688 C 215.980469 147.027344 215.941406 146.78125 215.863281 146.566406 C 215.789062 146.351562 215.675781 146.167969 215.527344 146.015625 C 215.375 145.867188 215.195312 145.753906 214.976562 145.679688 C 214.761719 145.601562 214.515625 145.5625 214.238281 145.5625 C 213.964844 145.5625 213.664062 145.597656 213.34375 145.671875 C 213.019531 145.75 212.675781 145.859375 212.320312 146.007812 C 211.960938 146.15625 211.589844 146.335938 211.207031 146.550781 C 210.828125 146.765625 210.441406 147.011719 210.054688 147.285156 C 209.664062 147.558594 209.28125 147.859375 208.898438 148.179688 C 208.519531 148.503906 208.148438 148.84375 207.792969 149.203125 C 207.433594 149.5625 207.09375 149.929688 206.769531 150.3125 C 206.449219 150.691406 206.148438 151.078125 205.875 151.464844 C 205.601562 151.851562 205.355469 152.238281 205.140625 152.617188 C 204.925781 153 204.746094 153.371094 204.597656 153.730469 C 204.449219 154.089844 204.335938 154.429688 204.261719 154.753906 C 204.1875 155.078125 204.152344 155.375 204.152344 155.652344 C 204.152344 155.925781 204.191406 156.171875 204.269531 156.386719 C 204.34375 156.605469 204.457031 156.789062 204.605469 156.9375 C 204.757812 157.085938 204.9375 157.199219 205.15625 157.277344 C 205.371094 157.351562 205.617188 157.390625 205.894531 157.390625 C 206.167969 157.394531 206.46875 157.355469 206.789062 157.28125 C 207.113281 157.207031 207.457031 157.09375 207.8125 156.945312 C 208.171875 156.796875 208.542969 156.617188 208.925781 156.402344 C 209.304688 156.1875 209.691406 155.941406 210.078125 155.667969 C 210.46875 155.394531 210.851562 155.097656 211.230469 154.773438 C 211.613281 154.449219 211.984375 154.109375 212.339844 153.753906 Z M 212.339844 153.753906 "/><path style=" stroke:none;fill-rule:nonzero;fill:rgb(100%,75.689697%,2.749634%);fill-opacity:1;" d="M 203.851562 149.628906 C 204.210938 149.988281 204.582031 150.328125 204.960938 150.652344 C 205.34375 150.972656 205.726562 151.269531 206.117188 151.546875 C 206.503906 151.820312 206.890625 152.0625 207.269531 152.277344 C 207.652344 152.492188 208.019531 152.675781 208.378906 152.824219 C 208.738281 152.972656 209.082031 153.082031 209.402344 153.15625 C 209.726562 153.234375 210.027344 153.269531 210.300781 153.269531 C 210.578125 153.269531 210.824219 153.230469 211.039062 153.152344 C 211.253906 153.078125 211.4375 152.964844 211.589844 152.8125 C 211.738281 152.664062 211.851562 152.480469 211.925781 152.265625 C 212.003906 152.046875 212.042969 151.804688 212.042969 151.527344 C 212.042969 151.253906 212.007812 150.953125 211.933594 150.628906 C 211.855469 150.304688 211.746094 149.964844 211.597656 149.605469 C 211.449219 149.246094 211.269531 148.878906 211.054688 148.496094 C 210.839844 148.113281 210.59375 147.730469 210.320312 147.339844 C 210.046875 146.953125 209.746094 146.570312 209.425781 146.1875 C 209.101562 145.808594 208.761719 145.4375 208.402344 145.078125 C 208.042969 144.722656 207.675781 144.378906 207.292969 144.058594 C 206.914062 143.734375 206.527344 143.4375 206.140625 143.164062 C 205.753906 142.890625 205.367188 142.644531 204.988281 142.429688 C 204.605469 142.214844 204.234375 142.03125 203.875 141.886719 C 203.515625 141.738281 203.175781 141.625 202.851562 141.550781 C 202.527344 141.476562 202.230469 141.4375 201.953125 141.4375 C 201.679688 141.441406 201.433594 141.480469 201.21875 141.554688 C 201 141.632812 200.816406 141.746094 200.667969 141.894531 C 200.519531 142.042969 200.40625 142.226562 200.328125 142.441406 C 200.253906 142.660156 200.214844 142.90625 200.214844 143.179688 C 200.210938 143.457031 200.25 143.753906 200.324219 144.078125 C 200.398438 144.402344 200.511719 144.742188 200.660156 145.101562 C 200.808594 145.460938 200.988281 145.832031 201.203125 146.210938 C 201.417969 146.59375 201.664062 146.976562 201.9375 147.367188 C 202.210938 147.753906 202.507812 148.140625 202.832031 148.519531 C 203.152344 148.902344 203.496094 149.269531 203.851562 149.628906 Z M 203.851562 149.628906 "/><path style=" stroke:none;fill-rule:nonzero;fill:rgb(100%,75.689697%,2.749634%);fill-opacity:1;" d="M 162.617188 153.300781 C 162.976562 153.660156 163.347656 154 163.726562 154.320312 C 164.109375 154.644531 164.492188 154.941406 164.878906 155.21875 C 165.269531 155.492188 165.652344 155.734375 166.035156 155.949219 C 166.414062 156.164062 166.785156 156.347656 167.144531 156.496094 C 167.503906 156.644531 167.84375 156.753906 168.167969 156.828125 C 168.492188 156.902344 168.792969 156.941406 169.066406 156.941406 C 169.339844 156.941406 169.585938 156.902344 169.804688 156.824219 C 170.019531 156.746094 170.203125 156.636719 170.351562 156.484375 C 170.503906 156.335938 170.613281 156.152344 170.691406 155.9375 C 170.769531 155.71875 170.808594 155.472656 170.808594 155.199219 C 170.808594 154.925781 170.769531 154.625 170.695312 154.300781 C 170.621094 153.976562 170.511719 153.636719 170.363281 153.277344 C 170.214844 152.917969 170.03125 152.546875 169.816406 152.167969 C 169.601562 151.785156 169.359375 151.402344 169.085938 151.011719 C 168.808594 150.625 168.511719 150.242188 168.1875 149.859375 C 167.867188 149.480469 167.527344 149.109375 167.167969 148.75 C 166.808594 148.390625 166.441406 148.050781 166.058594 147.730469 C 165.679688 147.40625 165.292969 147.109375 164.90625 146.835938 C 164.515625 146.558594 164.132812 146.316406 163.75 146.101562 C 163.371094 145.886719 163 145.703125 162.640625 145.554688 C 162.28125 145.410156 161.941406 145.296875 161.617188 145.222656 C 161.292969 145.148438 160.996094 145.109375 160.71875 145.109375 C 160.445312 145.113281 160.199219 145.152344 159.980469 145.226562 C 159.765625 145.304688 159.582031 145.417969 159.433594 145.566406 C 159.285156 145.714844 159.171875 145.898438 159.09375 146.113281 C 159.015625 146.332031 158.980469 146.578125 158.976562 146.851562 C 158.976562 147.128906 159.015625 147.425781 159.089844 147.75 C 159.164062 148.074219 159.277344 148.414062 159.421875 148.773438 C 159.570312 149.132812 159.753906 149.503906 159.96875 149.882812 C 160.183594 150.265625 160.425781 150.648438 160.703125 151.039062 C 160.976562 151.425781 161.273438 151.8125 161.597656 152.191406 C 161.917969 152.574219 162.257812 152.941406 162.617188 153.300781 Z M 162.617188 153.300781 "/><path style=" stroke:none;fill-rule:nonzero;fill:rgb(100%,75.689697%,2.749634%);fill-opacity:1;" d="M 166.742188 144.8125 C 166.382812 145.171875 166.042969 145.539062 165.71875 145.921875 C 165.398438 146.300781 165.097656 146.6875 164.824219 147.074219 C 164.550781 147.464844 164.304688 147.847656 164.089844 148.230469 C 163.875 148.609375 163.695312 148.980469 163.546875 149.339844 C 163.398438 149.699219 163.289062 150.039062 163.210938 150.363281 C 163.136719 150.6875 163.101562 150.984375 163.101562 151.261719 C 163.101562 151.535156 163.140625 151.78125 163.21875 152 C 163.292969 152.214844 163.40625 152.398438 163.554688 152.546875 C 163.707031 152.695312 163.886719 152.808594 164.105469 152.886719 C 164.320312 152.960938 164.566406 153 164.84375 153.003906 C 165.117188 153.003906 165.417969 152.964844 165.738281 152.890625 C 166.0625 152.816406 166.40625 152.703125 166.765625 152.558594 C 167.121094 152.410156 167.492188 152.226562 167.875 152.011719 C 168.253906 151.796875 168.640625 151.550781 169.027344 151.277344 C 169.417969 151.003906 169.800781 150.707031 170.183594 150.382812 C 170.5625 150.0625 170.933594 149.722656 171.289062 149.363281 C 171.648438 149.003906 171.988281 148.632812 172.3125 148.253906 C 172.632812 147.871094 172.933594 147.488281 173.207031 147.101562 C 173.480469 146.710938 173.726562 146.328125 173.941406 145.945312 C 174.15625 145.566406 174.335938 145.195312 174.484375 144.835938 C 174.632812 144.476562 174.746094 144.136719 174.820312 143.8125 C 174.894531 143.488281 174.929688 143.1875 174.929688 142.914062 C 174.929688 142.640625 174.890625 142.394531 174.816406 142.175781 C 174.738281 141.960938 174.625 141.777344 174.476562 141.628906 C 174.328125 141.476562 174.144531 141.367188 173.925781 141.289062 C 173.710938 141.210938 173.464844 141.171875 173.191406 141.171875 C 172.914062 141.171875 172.613281 141.210938 172.292969 141.285156 C 171.96875 141.359375 171.628906 141.46875 171.269531 141.617188 C 170.910156 141.765625 170.539062 141.949219 170.15625 142.164062 C 169.777344 142.378906 169.390625 142.621094 169.003906 142.894531 C 168.613281 143.171875 168.230469 143.46875 167.851562 143.792969 C 167.46875 144.113281 167.097656 144.453125 166.742188 144.8125 Z M 166.742188 144.8125 "/><path style=" stroke:none;fill-rule:nonzero;fill:rgb(100%,75.689697%,2.749634%);fill-opacity:1;" d="M 209.5625 105.597656 C 209.207031 105.238281 208.835938 104.898438 208.453125 104.574219 C 208.074219 104.253906 207.691406 103.957031 207.300781 103.679688 C 206.914062 103.40625 206.527344 103.164062 206.148438 102.949219 C 205.765625 102.730469 205.394531 102.550781 205.035156 102.402344 C 204.675781 102.253906 204.335938 102.144531 204.011719 102.070312 C 203.691406 101.992188 203.390625 101.957031 203.113281 101.957031 C 202.839844 101.957031 202.59375 101.996094 202.378906 102.074219 C 202.160156 102.148438 201.976562 102.261719 201.828125 102.414062 C 201.679688 102.5625 201.566406 102.746094 201.488281 102.960938 C 201.414062 103.175781 201.375 103.421875 201.375 103.699219 C 201.375 103.972656 201.410156 104.273438 201.484375 104.597656 C 201.558594 104.917969 201.671875 105.261719 201.820312 105.621094 C 201.96875 105.980469 202.148438 106.347656 202.363281 106.730469 C 202.578125 107.113281 202.824219 107.496094 203.097656 107.882812 C 203.371094 108.273438 203.671875 108.65625 203.992188 109.039062 C 204.316406 109.417969 204.65625 109.789062 205.015625 110.148438 C 205.371094 110.503906 205.742188 110.847656 206.121094 111.167969 C 206.503906 111.492188 206.886719 111.789062 207.277344 112.0625 C 207.664062 112.335938 208.050781 112.582031 208.429688 112.796875 C 208.8125 113.011719 209.183594 113.195312 209.539062 113.339844 C 209.898438 113.488281 210.242188 113.601562 210.566406 113.675781 C 210.886719 113.75 211.1875 113.789062 211.460938 113.789062 C 211.738281 113.785156 211.984375 113.746094 212.199219 113.671875 C 212.417969 113.59375 212.597656 113.480469 212.75 113.332031 C 212.898438 113.183594 213.011719 113 213.085938 112.785156 C 213.164062 112.566406 213.203125 112.320312 213.203125 112.046875 C 213.203125 111.769531 213.167969 111.472656 213.09375 111.148438 C 213.015625 110.824219 212.90625 110.484375 212.757812 110.125 C 212.609375 109.765625 212.429688 109.394531 212.214844 109.015625 C 212 108.632812 211.753906 108.25 211.480469 107.859375 C 211.207031 107.472656 210.90625 107.085938 210.585938 106.707031 C 210.261719 106.324219 209.921875 105.957031 209.5625 105.597656 Z M 209.5625 105.597656 "/><path style=" stroke:none;fill-rule:nonzero;fill:rgb(100%,75.689697%,2.749634%);fill-opacity:1;" d="M 205.441406 114.085938 C 205.800781 113.726562 206.140625 113.355469 206.460938 112.976562 C 206.785156 112.597656 207.082031 112.210938 207.355469 111.824219 C 207.632812 111.433594 207.875 111.050781 208.089844 110.667969 C 208.304688 110.289062 208.488281 109.917969 208.636719 109.558594 C 208.78125 109.199219 208.894531 108.859375 208.96875 108.535156 C 209.042969 108.210938 209.082031 107.910156 209.082031 107.636719 C 209.078125 107.363281 209.042969 107.117188 208.964844 106.898438 C 208.886719 106.683594 208.773438 106.5 208.625 106.351562 C 208.476562 106.203125 208.292969 106.089844 208.078125 106.011719 C 207.859375 105.933594 207.613281 105.898438 207.339844 105.894531 C 207.0625 105.894531 206.765625 105.933594 206.441406 106.007812 C 206.117188 106.082031 205.777344 106.191406 205.417969 106.339844 C 205.058594 106.488281 204.6875 106.671875 204.308594 106.886719 C 203.925781 107.101562 203.542969 107.34375 203.152344 107.621094 C 202.765625 107.894531 202.378906 108.191406 202 108.515625 C 201.617188 108.835938 201.25 109.175781 200.890625 109.535156 C 200.53125 109.894531 200.191406 110.265625 199.871094 110.644531 C 199.546875 111.023438 199.25 111.410156 198.976562 111.796875 C 198.699219 112.1875 198.457031 112.570312 198.242188 112.953125 C 198.027344 113.332031 197.84375 113.703125 197.695312 114.0625 C 197.546875 114.421875 197.4375 114.761719 197.363281 115.085938 C 197.289062 115.410156 197.25 115.707031 197.25 115.984375 C 197.25 116.257812 197.289062 116.503906 197.367188 116.722656 C 197.445312 116.9375 197.554688 117.121094 197.707031 117.269531 C 197.855469 117.417969 198.039062 117.53125 198.253906 117.609375 C 198.472656 117.6875 198.71875 117.722656 198.992188 117.726562 C 199.265625 117.726562 199.566406 117.6875 199.890625 117.613281 C 200.214844 117.539062 200.554688 117.425781 200.914062 117.28125 C 201.273438 117.132812 201.644531 116.949219 202.023438 116.734375 C 202.40625 116.519531 202.789062 116.277344 203.179688 116 C 203.566406 115.726562 203.949219 115.429688 204.332031 115.105469 C 204.710938 114.785156 205.082031 114.445312 205.441406 114.085938 Z M 205.441406 114.085938 "/><path style=" stroke:none;fill-rule:nonzero;fill:rgb(100%,75.689697%,2.749634%);fill-opacity:1;" d="M 165.476562 105.558594 C 165.117188 105.917969 164.777344 106.285156 164.453125 106.667969 C 164.128906 107.046875 163.832031 107.433594 163.558594 107.820312 C 163.285156 108.207031 163.039062 108.59375 162.824219 108.972656 C 162.609375 109.355469 162.429688 109.726562 162.28125 110.085938 C 162.132812 110.445312 162.019531 110.785156 161.945312 111.109375 C 161.871094 111.433594 161.835938 111.730469 161.835938 112.007812 C 161.835938 112.28125 161.875 112.527344 161.949219 112.742188 C 162.027344 112.960938 162.140625 113.144531 162.289062 113.292969 C 162.4375 113.441406 162.621094 113.554688 162.839844 113.632812 C 163.054688 113.707031 163.300781 113.746094 163.574219 113.746094 C 163.851562 113.75 164.152344 113.710938 164.472656 113.636719 C 164.796875 113.5625 165.136719 113.449219 165.496094 113.300781 C 165.855469 113.152344 166.226562 112.972656 166.609375 112.757812 C 166.988281 112.542969 167.375 112.296875 167.761719 112.023438 C 168.148438 111.75 168.535156 111.453125 168.914062 111.128906 C 169.296875 110.808594 169.667969 110.464844 170.023438 110.109375 C 170.382812 109.75 170.722656 109.378906 171.046875 109 C 171.367188 108.617188 171.667969 108.234375 171.941406 107.84375 C 172.214844 107.457031 172.460938 107.070312 172.675781 106.691406 C 172.890625 106.308594 173.070312 105.941406 173.21875 105.582031 C 173.367188 105.222656 173.476562 104.878906 173.554688 104.558594 C 173.628906 104.234375 173.664062 103.933594 173.664062 103.660156 C 173.664062 103.382812 173.625 103.136719 173.546875 102.921875 C 173.472656 102.707031 173.359375 102.523438 173.210938 102.371094 C 173.058594 102.222656 172.878906 102.109375 172.660156 102.035156 C 172.445312 101.957031 172.199219 101.917969 171.921875 101.917969 C 171.648438 101.917969 171.347656 101.953125 171.027344 102.027344 C 170.703125 102.105469 170.359375 102.214844 170 102.363281 C 169.640625 102.511719 169.273438 102.691406 168.890625 102.90625 C 168.511719 103.121094 168.125 103.367188 167.738281 103.640625 C 167.347656 103.914062 166.964844 104.214844 166.582031 104.535156 C 166.203125 104.859375 165.832031 105.199219 165.476562 105.558594 Z M 165.476562 105.558594 "/><path style=" stroke:none;fill-rule:nonzero;fill:rgb(100%,75.689697%,2.749634%);fill-opacity:1;" d="M 173.960938 109.679688 C 173.605469 109.324219 173.234375 108.980469 172.855469 108.660156 C 172.472656 108.335938 172.089844 108.039062 171.699219 107.765625 C 171.3125 107.492188 170.925781 107.246094 170.546875 107.03125 C 170.164062 106.816406 169.792969 106.632812 169.4375 106.488281 C 169.078125 106.339844 168.734375 106.226562 168.410156 106.152344 C 168.089844 106.078125 167.789062 106.039062 167.515625 106.039062 C 167.238281 106.042969 166.992188 106.082031 166.777344 106.15625 C 166.558594 106.234375 166.378906 106.347656 166.226562 106.496094 C 166.078125 106.644531 165.964844 106.828125 165.890625 107.042969 C 165.8125 107.261719 165.773438 107.507812 165.773438 107.78125 C 165.773438 108.058594 165.808594 108.355469 165.882812 108.679688 C 165.960938 109.003906 166.070312 109.34375 166.21875 109.703125 C 166.367188 110.0625 166.546875 110.433594 166.761719 110.8125 C 166.976562 111.195312 167.222656 111.578125 167.496094 111.96875 C 167.769531 112.355469 168.070312 112.742188 168.390625 113.121094 C 168.714844 113.503906 169.054688 113.871094 169.414062 114.230469 C 169.769531 114.589844 170.140625 114.929688 170.523438 115.253906 C 170.902344 115.574219 171.285156 115.871094 171.675781 116.148438 C 172.0625 116.421875 172.449219 116.664062 172.828125 116.878906 C 173.210938 117.09375 173.582031 117.277344 173.941406 117.425781 C 174.300781 117.574219 174.640625 117.683594 174.964844 117.757812 C 175.285156 117.835938 175.585938 117.871094 175.863281 117.871094 C 176.136719 117.871094 176.382812 117.832031 176.597656 117.753906 C 176.816406 117.679688 177 117.566406 177.148438 117.414062 C 177.296875 117.265625 177.410156 117.082031 177.488281 116.867188 C 177.5625 116.652344 177.601562 116.40625 177.601562 116.128906 C 177.601562 115.855469 177.566406 115.554688 177.492188 115.230469 C 177.417969 114.90625 177.304688 114.566406 177.15625 114.207031 C 177.007812 113.847656 176.828125 113.480469 176.613281 113.097656 C 176.398438 112.714844 176.152344 112.332031 175.878906 111.945312 C 175.605469 111.554688 175.304688 111.171875 174.984375 110.789062 C 174.660156 110.410156 174.320312 110.039062 173.960938 109.679688 Z M 173.960938 109.679688 "/><g clip-rule="nonzero" clip-path="url(#clip1)"><path style=" stroke:none;fill-rule:nonzero;fill:rgb(100%,75.689697%,2.749634%);fill-opacity:1;" d="M 187.351562 50.210938 C 143.320312 50.210938 107.476562 86.054688 107.476562 130.085938 C 107.476562 174.117188 143.320312 209.960938 187.351562 209.960938 C 231.382812 209.960938 267.226562 174.117188 267.226562 130.085938 C 267.226562 86.054688 231.382812 50.210938 187.351562 50.210938 Z M 187.351562 64.101562 C 223.875 64.101562 253.335938 93.5625 253.335938 130.085938 C 253.335938 166.609375 223.875 196.070312 187.351562 196.070312 C 150.828125 196.070312 121.367188 166.609375 121.367188 130.085938 C 121.367188 93.5625 150.828125 64.101562 187.351562 64.101562 Z M 187.351562 64.101562 "/></g><g clip-rule="nonzero" clip-path="url(#clip2)"><path style=" stroke:none;fill-rule:nonzero;fill:rgb(100%,75.689697%,2.749634%);fill-opacity:1;" d="M 187.359375 55.46875 C 146.21875 55.46875 112.734375 88.957031 112.734375 130.09375 C 112.734375 171.230469 146.21875 204.71875 187.359375 204.71875 C 228.496094 204.71875 261.984375 171.230469 261.984375 130.09375 C 261.984375 88.957031 228.496094 55.46875 187.359375 55.46875 Z M 187.359375 68.445312 C 221.480469 68.445312 249.003906 95.96875 249.003906 130.09375 C 249.003906 164.214844 221.480469 191.738281 187.359375 191.738281 C 153.234375 191.738281 125.710938 164.214844 125.710938 130.09375 C 125.710938 95.96875 153.234375 68.445312 187.359375 68.445312 Z M 187.359375 68.445312 "/></g><path style=" stroke:none;fill-rule:nonzero;fill:rgb(100%,75.689697%,2.749634%);fill-opacity:1;" d="M 199.507812 208.027344 L 199.507812 231.277344 L 175.511719 231.277344 L 175.511719 208.027344 Z M 199.507812 208.027344 "/><path style=" stroke:none;fill-rule:nonzero;fill:rgb(100%,75.689697%,2.749634%);fill-opacity:1;" d="M 207.546875 238.976562 L 207.546875 307.226562 L 167.796875 307.226562 L 167.796875 238.976562 Z M 207.546875 238.976562 "/><path style=" stroke:none;fill-rule:nonzero;fill:rgb(100%,75.689697%,2.749634%);fill-opacity:1;" d="M 167.804688 324.816406 L 167.804688 306.066406 L 207.535156 306.066406 Z M 167.804688 324.816406 "/><path style=" stroke:none;fill-rule:nonzero;fill:rgb(100%,75.689697%,2.749634%);fill-opacity:1;" d="M 192.621094 221.132812 L 192.621094 230.882812 L 167.128906 230.882812 L 167.128906 221.132812 Z M 192.621094 221.132812 "/><path style=" stroke:none;fill-rule:nonzero;fill:rgb(100%,75.689697%,2.749634%);fill-opacity:1;" d="M 208.257812 221.132812 L 208.257812 230.882812 L 182.769531 230.882812 L 182.769531 221.132812 Z M 208.257812 221.132812 "/></g></svg>