<?xml version="1.0" encoding="UTF-8"?>
<svg xmlns="http://www.w3.org/2000/svg" xmlns:xlink="http://www.w3.org/1999/xlink" width="375pt" height="374.999991pt" viewBox="0 0 375 374.999991" version="1.2">
<defs>
<clipPath id="clip1">
  <path d="M 103.820312 43.9375 L 271.070312 43.9375 L 271.070312 211.1875 L 103.820312 211.1875 Z M 103.820312 43.9375 "/>
</clipPath>
<clipPath id="clip2">
  <path d="M 109.316406 49.433594 L 265.316406 49.433594 L 265.316406 205.433594 L 109.316406 205.433594 Z M 109.316406 49.433594 "/>
</clipPath>
</defs>
<g id="surface1">
<path style=" stroke:none;fill-rule:nonzero;fill:rgb(100%,75.689697%,2.749634%);fill-opacity:1;" d="M 187.5 102.023438 C 186.660156 102.023438 185.824219 102.066406 184.992188 102.148438 C 184.15625 102.230469 183.328125 102.351562 182.507812 102.515625 C 181.683594 102.679688 180.871094 102.882812 180.070312 103.125 C 179.269531 103.371094 178.480469 103.652344 177.707031 103.972656 C 176.929688 104.292969 176.175781 104.652344 175.433594 105.046875 C 174.695312 105.441406 173.976562 105.871094 173.28125 106.335938 C 172.582031 106.804688 171.910156 107.300781 171.261719 107.832031 C 170.613281 108.367188 169.996094 108.929688 169.402344 109.519531 C 168.808594 110.113281 168.246094 110.734375 167.714844 111.382812 C 167.183594 112.03125 166.683594 112.703125 166.21875 113.398438 C 165.753906 114.097656 165.324219 114.8125 164.929688 115.554688 C 164.53125 116.292969 164.175781 117.050781 163.855469 117.824219 C 163.53125 118.597656 163.25 119.386719 163.007812 120.1875 C 162.765625 120.992188 162.5625 121.804688 162.398438 122.625 C 162.234375 123.449219 162.109375 124.277344 162.027344 125.109375 C 161.945312 125.945312 161.90625 126.78125 161.90625 127.617188 C 161.90625 128.457031 161.945312 129.292969 162.027344 130.128906 C 162.109375 130.960938 162.234375 131.789062 162.398438 132.613281 C 162.5625 133.433594 162.765625 134.246094 163.007812 135.046875 C 163.25 135.851562 163.53125 136.636719 163.855469 137.414062 C 164.175781 138.1875 164.53125 138.945312 164.929688 139.683594 C 165.324219 140.421875 165.753906 141.140625 166.21875 141.835938 C 166.683594 142.535156 167.183594 143.207031 167.714844 143.855469 C 168.246094 144.503906 168.808594 145.125 169.402344 145.714844 C 169.996094 146.308594 170.613281 146.871094 171.261719 147.402344 C 171.910156 147.933594 172.582031 148.433594 173.28125 148.898438 C 173.976562 149.363281 174.695312 149.796875 175.433594 150.191406 C 176.175781 150.585938 176.929688 150.945312 177.707031 151.265625 C 178.480469 151.585938 179.269531 151.867188 180.070312 152.109375 C 180.871094 152.355469 181.683594 152.558594 182.507812 152.722656 C 183.328125 152.882812 184.15625 153.007812 184.992188 153.089844 C 185.824219 153.171875 186.660156 153.210938 187.5 153.210938 C 188.339844 153.210938 189.175781 153.171875 190.007812 153.089844 C 190.84375 153.007812 191.671875 152.882812 192.492188 152.722656 C 193.316406 152.558594 194.128906 152.355469 194.929688 152.109375 C 195.730469 151.867188 196.519531 151.585938 197.292969 151.265625 C 198.070312 150.945312 198.824219 150.585938 199.566406 150.191406 C 200.304688 149.796875 201.023438 149.363281 201.71875 148.898438 C 202.417969 148.433594 203.089844 147.933594 203.738281 147.402344 C 204.386719 146.871094 205.003906 146.308594 205.597656 145.714844 C 206.191406 145.125 206.753906 144.503906 207.285156 143.855469 C 207.816406 143.207031 208.316406 142.535156 208.78125 141.835938 C 209.246094 141.140625 209.675781 140.421875 210.070312 139.683594 C 210.46875 138.945312 210.824219 138.1875 211.144531 137.414062 C 211.46875 136.636719 211.75 135.851562 211.992188 135.046875 C 212.234375 134.246094 212.4375 133.433594 212.601562 132.613281 C 212.765625 131.789062 212.890625 130.960938 212.972656 130.128906 C 213.054688 129.292969 213.09375 128.457031 213.09375 127.617188 C 213.09375 126.78125 213.054688 125.945312 212.972656 125.109375 C 212.890625 124.277344 212.765625 123.449219 212.601562 122.625 C 212.4375 121.804688 212.234375 120.992188 211.992188 120.1875 C 211.75 119.386719 211.46875 118.597656 211.144531 117.824219 C 210.824219 117.050781 210.46875 116.292969 210.070312 115.554688 C 209.675781 114.8125 209.246094 114.097656 208.78125 113.398438 C 208.316406 112.703125 207.816406 112.03125 207.285156 111.382812 C 206.753906 110.734375 206.191406 110.113281 205.597656 109.519531 C 205.003906 108.929688 204.386719 108.367188 203.738281 107.832031 C 203.089844 107.300781 202.417969 106.804688 201.71875 106.335938 C 201.023438 105.871094 200.304688 105.441406 199.566406 105.046875 C 198.824219 104.652344 198.070312 104.292969 197.292969 103.972656 C 196.519531 103.652344 195.730469 103.371094 194.929688 103.125 C 194.128906 102.882812 193.316406 102.679688 192.492188 102.515625 C 191.671875 102.351562 190.84375 102.230469 190.007812 102.148438 C 189.175781 102.066406 188.339844 102.023438 187.5 102.023438 Z M 187.5 102.023438 "/>
<path style=" stroke:none;fill-rule:nonzero;fill:rgb(100%,75.689697%,2.749634%);fill-opacity:1;" d="M 187.5 92.722656 C 186.972656 92.722656 186.449219 92.746094 185.929688 92.785156 C 185.414062 92.828125 184.910156 92.890625 184.421875 92.972656 C 183.933594 93.054688 183.46875 93.15625 183.03125 93.273438 C 182.589844 93.394531 182.183594 93.527344 181.8125 93.679688 C 181.4375 93.832031 181.105469 93.996094 180.808594 94.175781 C 180.515625 94.355469 180.269531 94.542969 180.066406 94.738281 C 179.863281 94.9375 179.710938 95.140625 179.609375 95.351562 C 179.507812 95.5625 179.453125 95.777344 179.453125 95.988281 C 179.453125 96.203125 179.507812 96.417969 179.609375 96.628906 C 179.710938 96.835938 179.863281 97.042969 180.066406 97.238281 C 180.269531 97.4375 180.515625 97.625 180.808594 97.804688 C 181.105469 97.984375 181.4375 98.148438 181.8125 98.300781 C 182.183594 98.449219 182.589844 98.585938 183.03125 98.707031 C 183.46875 98.824219 183.933594 98.925781 184.421875 99.007812 C 184.910156 99.089844 185.414062 99.152344 185.929688 99.191406 C 186.449219 99.234375 186.972656 99.257812 187.5 99.257812 C 188.027344 99.257812 188.550781 99.234375 189.070312 99.191406 C 189.585938 99.152344 190.089844 99.089844 190.578125 99.007812 C 191.066406 98.925781 191.53125 98.824219 191.96875 98.707031 C 192.410156 98.585938 192.816406 98.449219 193.1875 98.300781 C 193.5625 98.148438 193.894531 97.984375 194.191406 97.804688 C 194.484375 97.625 194.730469 97.4375 194.933594 97.238281 C 195.136719 97.042969 195.289062 96.835938 195.390625 96.628906 C 195.492188 96.417969 195.546875 96.203125 195.546875 95.988281 C 195.546875 95.777344 195.492188 95.5625 195.390625 95.351562 C 195.289062 95.140625 195.136719 94.9375 194.933594 94.738281 C 194.730469 94.542969 194.484375 94.355469 194.191406 94.175781 C 193.894531 93.996094 193.5625 93.832031 193.1875 93.679688 C 192.816406 93.527344 192.410156 93.394531 191.96875 93.273438 C 191.53125 93.15625 191.066406 93.054688 190.578125 92.972656 C 190.089844 92.890625 189.585938 92.828125 189.070312 92.785156 C 188.550781 92.746094 188.027344 92.722656 187.5 92.722656 Z M 187.5 92.722656 "/>
<path style=" stroke:none;fill-rule:nonzero;fill:rgb(100%,75.689697%,2.749634%);fill-opacity:1;" d="M 190.761719 102.023438 C 190.761719 101.492188 190.742188 100.972656 190.699219 100.453125 C 190.660156 99.933594 190.597656 99.429688 190.515625 98.945312 C 190.433594 98.457031 190.332031 97.992188 190.210938 97.550781 C 190.09375 97.113281 189.957031 96.707031 189.804688 96.332031 C 189.65625 95.960938 189.488281 95.625 189.3125 95.332031 C 189.132812 95.039062 188.945312 94.792969 188.746094 94.589844 C 188.546875 94.386719 188.34375 94.234375 188.132812 94.132812 C 187.925781 94.027344 187.710938 93.976562 187.496094 93.976562 C 187.28125 93.976562 187.070312 94.027344 186.859375 94.132812 C 186.648438 94.234375 186.445312 94.386719 186.246094 94.589844 C 186.050781 94.792969 185.859375 95.039062 185.683594 95.332031 C 185.503906 95.625 185.339844 95.960938 185.1875 96.332031 C 185.035156 96.707031 184.902344 97.113281 184.78125 97.550781 C 184.664062 97.992188 184.5625 98.457031 184.480469 98.945312 C 184.398438 99.429688 184.335938 99.933594 184.292969 100.453125 C 184.25 100.972656 184.230469 101.492188 184.230469 102.023438 C 184.230469 102.550781 184.25 103.074219 184.292969 103.59375 C 184.335938 104.109375 184.398438 104.613281 184.480469 105.101562 C 184.5625 105.589844 184.664062 106.054688 184.78125 106.492188 C 184.902344 106.929688 185.035156 107.339844 185.1875 107.710938 C 185.339844 108.085938 185.503906 108.417969 185.683594 108.710938 C 185.859375 109.003906 186.050781 109.253906 186.246094 109.457031 C 186.445312 109.65625 186.648438 109.808594 186.859375 109.914062 C 187.070312 110.015625 187.28125 110.066406 187.496094 110.066406 C 187.710938 110.066406 187.925781 110.015625 188.132812 109.914062 C 188.34375 109.808594 188.546875 109.65625 188.746094 109.457031 C 188.945312 109.253906 189.132812 109.003906 189.3125 108.710938 C 189.488281 108.417969 189.65625 108.085938 189.804688 107.710938 C 189.957031 107.339844 190.09375 106.929688 190.210938 106.492188 C 190.332031 106.054688 190.433594 105.589844 190.515625 105.101562 C 190.597656 104.613281 190.660156 104.109375 190.699219 103.59375 C 190.742188 103.074219 190.761719 102.550781 190.761719 102.023438 Z M 190.761719 102.023438 "/>
<path style=" stroke:none;fill-rule:nonzero;fill:rgb(100%,75.689697%,2.749634%);fill-opacity:1;" d="M 187.5 162.972656 C 188.027344 162.972656 188.550781 162.953125 189.066406 162.910156 C 189.585938 162.871094 190.089844 162.808594 190.578125 162.726562 C 191.066406 162.644531 191.53125 162.542969 191.96875 162.425781 C 192.40625 162.304688 192.8125 162.167969 193.1875 162.019531 C 193.5625 161.867188 193.894531 161.703125 194.1875 161.523438 C 194.480469 161.34375 194.730469 161.15625 194.933594 160.957031 C 195.132812 160.761719 195.285156 160.554688 195.390625 160.347656 C 195.492188 160.136719 195.542969 159.921875 195.542969 159.707031 C 195.542969 159.492188 195.492188 159.28125 195.390625 159.070312 C 195.285156 158.859375 195.132812 158.65625 194.933594 158.457031 C 194.730469 158.261719 194.480469 158.074219 194.1875 157.894531 C 193.894531 157.714844 193.5625 157.550781 193.1875 157.398438 C 192.8125 157.246094 192.40625 157.113281 191.96875 156.992188 C 191.53125 156.875 191.066406 156.773438 190.578125 156.691406 C 190.089844 156.609375 189.585938 156.546875 189.066406 156.503906 C 188.550781 156.464844 188.027344 156.441406 187.5 156.441406 C 186.96875 156.441406 186.445312 156.464844 185.929688 156.503906 C 185.410156 156.546875 184.90625 156.609375 184.417969 156.691406 C 183.933594 156.773438 183.46875 156.875 183.027344 156.992188 C 182.589844 157.113281 182.183594 157.246094 181.808594 157.398438 C 181.4375 157.550781 181.101562 157.714844 180.808594 157.894531 C 180.515625 158.074219 180.269531 158.261719 180.066406 158.457031 C 179.863281 158.65625 179.710938 158.859375 179.609375 159.070312 C 179.503906 159.28125 179.453125 159.492188 179.453125 159.707031 C 179.453125 159.921875 179.503906 160.136719 179.609375 160.347656 C 179.710938 160.554688 179.863281 160.761719 180.066406 160.957031 C 180.269531 161.15625 180.515625 161.34375 180.808594 161.523438 C 181.101562 161.703125 181.4375 161.867188 181.808594 162.019531 C 182.183594 162.167969 182.589844 162.304688 183.027344 162.425781 C 183.46875 162.542969 183.933594 162.644531 184.417969 162.726562 C 184.90625 162.808594 185.410156 162.871094 185.929688 162.910156 C 186.445312 162.953125 186.96875 162.972656 187.5 162.972656 Z M 187.5 162.972656 "/>
<path style=" stroke:none;fill-rule:nonzero;fill:rgb(100%,75.689697%,2.749634%);fill-opacity:1;" d="M 184.242188 153.679688 C 184.242188 154.207031 184.261719 154.730469 184.304688 155.246094 C 184.347656 155.765625 184.410156 156.269531 184.492188 156.757812 C 184.574219 157.246094 184.671875 157.710938 184.792969 158.148438 C 184.910156 158.585938 185.046875 158.992188 185.199219 159.367188 C 185.351562 159.742188 185.515625 160.074219 185.695312 160.367188 C 185.871094 160.660156 186.058594 160.910156 186.257812 161.113281 C 186.457031 161.3125 186.660156 161.464844 186.871094 161.570312 C 187.082031 161.671875 187.292969 161.722656 187.507812 161.722656 C 187.722656 161.722656 187.933594 161.671875 188.144531 161.570312 C 188.355469 161.464844 188.558594 161.3125 188.757812 161.113281 C 188.957031 160.910156 189.144531 160.660156 189.324219 160.367188 C 189.5 160.074219 189.667969 159.742188 189.816406 159.367188 C 189.96875 158.992188 190.105469 158.585938 190.222656 158.148438 C 190.34375 157.710938 190.445312 157.246094 190.527344 156.757812 C 190.609375 156.269531 190.671875 155.765625 190.710938 155.246094 C 190.753906 154.730469 190.773438 154.207031 190.773438 153.679688 C 190.773438 153.148438 190.753906 152.625 190.710938 152.109375 C 190.671875 151.589844 190.609375 151.085938 190.527344 150.597656 C 190.445312 150.113281 190.34375 149.648438 190.222656 149.207031 C 190.105469 148.769531 189.96875 148.363281 189.816406 147.988281 C 189.667969 147.617188 189.5 147.28125 189.324219 146.988281 C 189.144531 146.695312 188.957031 146.449219 188.757812 146.246094 C 188.558594 146.042969 188.355469 145.890625 188.144531 145.789062 C 187.933594 145.683594 187.722656 145.632812 187.507812 145.632812 C 187.292969 145.632812 187.082031 145.683594 186.871094 145.789062 C 186.660156 145.890625 186.457031 146.042969 186.257812 146.246094 C 186.058594 146.449219 185.871094 146.695312 185.695312 146.988281 C 185.515625 147.28125 185.351562 147.617188 185.199219 147.988281 C 185.046875 148.363281 184.910156 148.769531 184.792969 149.207031 C 184.671875 149.648438 184.574219 150.113281 184.492188 150.597656 C 184.410156 151.085938 184.347656 151.589844 184.304688 152.109375 C 184.261719 152.625 184.242188 153.148438 184.242188 153.679688 Z M 184.242188 153.679688 "/>
<path style=" stroke:none;fill-rule:nonzero;fill:rgb(100%,75.689697%,2.749634%);fill-opacity:1;" d="M 221.765625 127.617188 C 221.765625 127.089844 221.746094 126.566406 221.703125 126.046875 C 221.660156 125.53125 221.597656 125.027344 221.515625 124.539062 C 221.433594 124.050781 221.335938 123.585938 221.214844 123.148438 C 221.097656 122.707031 220.960938 122.300781 220.808594 121.929688 C 220.65625 121.554688 220.492188 121.222656 220.3125 120.929688 C 220.136719 120.636719 219.949219 120.386719 219.75 120.183594 C 219.550781 119.984375 219.347656 119.832031 219.136719 119.726562 C 218.925781 119.625 218.714844 119.574219 218.5 119.574219 C 218.285156 119.574219 218.074219 119.625 217.863281 119.726562 C 217.652344 119.832031 217.449219 119.984375 217.25 120.183594 C 217.050781 120.386719 216.863281 120.636719 216.683594 120.929688 C 216.507812 121.222656 216.339844 121.554688 216.191406 121.929688 C 216.039062 122.300781 215.902344 122.707031 215.785156 123.148438 C 215.664062 123.585938 215.5625 124.050781 215.480469 124.539062 C 215.398438 125.027344 215.339844 125.53125 215.296875 126.046875 C 215.253906 126.566406 215.234375 127.089844 215.234375 127.617188 C 215.234375 128.144531 215.253906 128.667969 215.296875 129.1875 C 215.339844 129.707031 215.398438 130.207031 215.480469 130.695312 C 215.5625 131.183594 215.664062 131.648438 215.785156 132.085938 C 215.902344 132.527344 216.039062 132.933594 216.191406 133.308594 C 216.339844 133.679688 216.507812 134.015625 216.683594 134.308594 C 216.863281 134.601562 217.050781 134.847656 217.25 135.050781 C 217.449219 135.253906 217.652344 135.40625 217.863281 135.507812 C 218.074219 135.613281 218.285156 135.664062 218.5 135.664062 C 218.714844 135.664062 218.925781 135.613281 219.136719 135.507812 C 219.347656 135.40625 219.550781 135.253906 219.75 135.050781 C 219.949219 134.847656 220.136719 134.601562 220.3125 134.308594 C 220.492188 134.015625 220.65625 133.679688 220.808594 133.308594 C 220.960938 132.933594 221.097656 132.527344 221.214844 132.085938 C 221.335938 131.648438 221.433594 131.183594 221.515625 130.695312 C 221.597656 130.207031 221.660156 129.707031 221.703125 129.1875 C 221.746094 128.667969 221.765625 128.144531 221.765625 127.617188 Z M 221.765625 127.617188 "/>
<path style=" stroke:none;fill-rule:nonzero;fill:rgb(100%,75.689697%,2.749634%);fill-opacity:1;" d="M 212.46875 130.875 C 212.996094 130.875 213.519531 130.851562 214.039062 130.8125 C 214.558594 130.769531 215.058594 130.707031 215.546875 130.625 C 216.035156 130.542969 216.5 130.441406 216.9375 130.324219 C 217.378906 130.203125 217.785156 130.070312 218.160156 129.917969 C 218.53125 129.765625 218.867188 129.601562 219.160156 129.421875 C 219.453125 129.246094 219.699219 129.054688 219.902344 128.859375 C 220.105469 128.660156 220.257812 128.457031 220.359375 128.246094 C 220.464844 128.035156 220.515625 127.824219 220.515625 127.609375 C 220.515625 127.394531 220.464844 127.179688 220.359375 126.972656 C 220.257812 126.761719 220.105469 126.554688 219.902344 126.359375 C 219.699219 126.160156 219.453125 125.972656 219.160156 125.792969 C 218.867188 125.617188 218.53125 125.449219 218.160156 125.296875 C 217.785156 125.148438 217.378906 125.011719 216.9375 124.894531 C 216.5 124.773438 216.035156 124.671875 215.546875 124.589844 C 215.058594 124.507812 214.558594 124.445312 214.039062 124.40625 C 213.519531 124.363281 212.996094 124.34375 212.46875 124.34375 C 211.941406 124.34375 211.417969 124.363281 210.898438 124.40625 C 210.382812 124.445312 209.878906 124.507812 209.390625 124.589844 C 208.902344 124.671875 208.4375 124.773438 208 124.894531 C 207.558594 125.011719 207.152344 125.148438 206.78125 125.296875 C 206.40625 125.449219 206.074219 125.617188 205.78125 125.792969 C 205.484375 125.972656 205.238281 126.160156 205.035156 126.359375 C 204.835938 126.554688 204.679688 126.761719 204.578125 126.972656 C 204.476562 127.179688 204.421875 127.394531 204.421875 127.609375 C 204.421875 127.824219 204.476562 128.035156 204.578125 128.246094 C 204.679688 128.457031 204.835938 128.660156 205.035156 128.859375 C 205.238281 129.054688 205.484375 129.246094 205.78125 129.421875 C 206.074219 129.601562 206.40625 129.765625 206.78125 129.917969 C 207.152344 130.070312 207.558594 130.203125 208 130.324219 C 208.4375 130.441406 208.902344 130.542969 209.390625 130.625 C 209.878906 130.707031 210.382812 130.769531 210.898438 130.8125 C 211.417969 130.851562 211.941406 130.875 212.46875 130.875 Z M 212.46875 130.875 "/>
<path style=" stroke:none;fill-rule:nonzero;fill:rgb(100%,75.689697%,2.749634%);fill-opacity:1;" d="M 153.234375 127.617188 C 153.234375 128.144531 153.253906 128.667969 153.296875 129.1875 C 153.335938 129.703125 153.398438 130.207031 153.480469 130.695312 C 153.5625 131.183594 153.664062 131.648438 153.785156 132.085938 C 153.902344 132.527344 154.039062 132.933594 154.191406 133.304688 C 154.339844 133.679688 154.507812 134.011719 154.683594 134.304688 C 154.863281 134.601562 155.050781 134.847656 155.25 135.050781 C 155.449219 135.253906 155.652344 135.40625 155.863281 135.507812 C 156.074219 135.609375 156.285156 135.664062 156.5 135.664062 C 156.714844 135.664062 156.925781 135.609375 157.136719 135.507812 C 157.347656 135.40625 157.550781 135.253906 157.75 135.050781 C 157.945312 134.847656 158.136719 134.601562 158.3125 134.304688 C 158.492188 134.011719 158.65625 133.679688 158.808594 133.304688 C 158.960938 132.933594 159.097656 132.527344 159.214844 132.085938 C 159.335938 131.648438 159.433594 131.183594 159.515625 130.695312 C 159.597656 130.207031 159.660156 129.703125 159.703125 129.1875 C 159.746094 128.667969 159.765625 128.144531 159.765625 127.617188 C 159.765625 127.089844 159.746094 126.566406 159.703125 126.046875 C 159.660156 125.527344 159.597656 125.027344 159.515625 124.539062 C 159.433594 124.050781 159.335938 123.585938 159.214844 123.148438 C 159.097656 122.707031 158.960938 122.300781 158.808594 121.925781 C 158.65625 121.554688 158.492188 121.21875 158.3125 120.925781 C 158.136719 120.632812 157.945312 120.386719 157.75 120.183594 C 157.550781 119.980469 157.347656 119.828125 157.136719 119.726562 C 156.925781 119.621094 156.714844 119.570312 156.5 119.570312 C 156.285156 119.570312 156.074219 119.621094 155.863281 119.726562 C 155.652344 119.828125 155.449219 119.980469 155.25 120.183594 C 155.050781 120.386719 154.863281 120.632812 154.683594 120.925781 C 154.507812 121.21875 154.339844 121.554688 154.191406 121.925781 C 154.039062 122.300781 153.902344 122.707031 153.785156 123.148438 C 153.664062 123.585938 153.5625 124.050781 153.480469 124.539062 C 153.398438 125.027344 153.335938 125.527344 153.296875 126.046875 C 153.253906 126.566406 153.234375 127.089844 153.234375 127.617188 Z M 153.234375 127.617188 "/>
<path style=" stroke:none;fill-rule:nonzero;fill:rgb(100%,75.689697%,2.749634%);fill-opacity:1;" d="M 162.53125 124.359375 C 162 124.359375 161.476562 124.382812 160.960938 124.421875 C 160.441406 124.464844 159.9375 124.527344 159.449219 124.609375 C 158.960938 124.691406 158.5 124.792969 158.058594 124.910156 C 157.621094 125.03125 157.214844 125.164062 156.839844 125.316406 C 156.464844 125.46875 156.132812 125.632812 155.839844 125.8125 C 155.546875 125.992188 155.296875 126.179688 155.097656 126.375 C 154.894531 126.574219 154.742188 126.777344 154.636719 126.988281 C 154.535156 127.199219 154.484375 127.410156 154.484375 127.625 C 154.484375 127.839844 154.535156 128.054688 154.636719 128.265625 C 154.742188 128.472656 154.894531 128.679688 155.097656 128.875 C 155.296875 129.074219 155.546875 129.261719 155.839844 129.441406 C 156.132812 129.621094 156.464844 129.785156 156.839844 129.9375 C 157.214844 130.085938 157.621094 130.222656 158.058594 130.34375 C 158.5 130.460938 158.960938 130.5625 159.449219 130.644531 C 159.9375 130.726562 160.441406 130.789062 160.960938 130.828125 C 161.476562 130.871094 162 130.894531 162.53125 130.894531 C 163.058594 130.894531 163.582031 130.871094 164.097656 130.828125 C 164.617188 130.789062 165.121094 130.726562 165.609375 130.644531 C 166.097656 130.5625 166.558594 130.460938 167 130.34375 C 167.4375 130.222656 167.84375 130.085938 168.21875 129.9375 C 168.59375 129.785156 168.925781 129.621094 169.21875 129.441406 C 169.511719 129.261719 169.761719 129.074219 169.960938 128.875 C 170.164062 128.679688 170.316406 128.472656 170.421875 128.265625 C 170.523438 128.054688 170.574219 127.839844 170.574219 127.625 C 170.574219 127.410156 170.523438 127.199219 170.421875 126.988281 C 170.316406 126.777344 170.164062 126.574219 169.960938 126.375 C 169.761719 126.179688 169.511719 125.992188 169.21875 125.8125 C 168.925781 125.632812 168.59375 125.46875 168.21875 125.316406 C 167.84375 125.164062 167.4375 125.03125 167 124.910156 C 166.558594 124.792969 166.097656 124.691406 165.609375 124.609375 C 165.121094 124.527344 164.617188 124.464844 164.097656 124.421875 C 163.582031 124.382812 163.058594 124.359375 162.53125 124.359375 Z M 162.53125 124.359375 "/>
<path style=" stroke:none;fill-rule:nonzero;fill:rgb(100%,75.689697%,2.749634%);fill-opacity:1;" d="M 213.5 152.191406 C 213.871094 151.820312 214.226562 151.433594 214.5625 151.039062 C 214.902344 150.644531 215.210938 150.242188 215.5 149.839844 C 215.785156 149.4375 216.042969 149.039062 216.269531 148.644531 C 216.496094 148.25 216.6875 147.863281 216.84375 147.492188 C 217 147.121094 217.121094 146.769531 217.203125 146.4375 C 217.285156 146.101562 217.324219 145.792969 217.328125 145.511719 C 217.332031 145.226562 217.292969 144.976562 217.21875 144.753906 C 217.144531 144.53125 217.03125 144.347656 216.878906 144.195312 C 216.726562 144.042969 216.539062 143.929688 216.316406 143.851562 C 216.097656 143.777344 215.84375 143.742188 215.5625 143.742188 C 215.277344 143.746094 214.96875 143.789062 214.636719 143.871094 C 214.300781 143.953125 213.949219 144.070312 213.578125 144.226562 C 213.207031 144.382812 212.824219 144.578125 212.429688 144.800781 C 212.035156 145.027344 211.636719 145.285156 211.230469 145.574219 C 210.828125 145.859375 210.429688 146.171875 210.035156 146.507812 C 209.636719 146.84375 209.253906 147.199219 208.878906 147.574219 C 208.503906 147.949219 208.152344 148.332031 207.8125 148.726562 C 207.476562 149.125 207.164062 149.523438 206.878906 149.925781 C 206.589844 150.328125 206.335938 150.730469 206.109375 151.125 C 205.882812 151.519531 205.691406 151.902344 205.53125 152.273438 C 205.375 152.644531 205.257812 152.996094 205.175781 153.332031 C 205.09375 153.664062 205.050781 153.972656 205.050781 154.253906 C 205.046875 154.539062 205.082031 154.792969 205.160156 155.011719 C 205.234375 155.234375 205.347656 155.421875 205.5 155.574219 C 205.652344 155.722656 205.839844 155.839844 206.058594 155.914062 C 206.28125 155.988281 206.535156 156.027344 206.816406 156.023438 C 207.097656 156.019531 207.40625 155.976562 207.742188 155.898438 C 208.074219 155.816406 208.425781 155.695312 208.800781 155.539062 C 209.171875 155.382812 209.554688 155.191406 209.949219 154.964844 C 210.34375 154.738281 210.742188 154.480469 211.144531 154.195312 C 211.546875 153.90625 211.949219 153.59375 212.34375 153.257812 C 212.738281 152.921875 213.125 152.566406 213.5 152.191406 Z M 213.5 152.191406 "/>
<path style=" stroke:none;fill-rule:nonzero;fill:rgb(100%,75.689697%,2.749634%);fill-opacity:1;" d="M 204.621094 147.921875 C 204.996094 148.296875 205.378906 148.652344 205.777344 148.988281 C 206.171875 149.324219 206.570312 149.636719 206.976562 149.921875 C 207.378906 150.210938 207.777344 150.46875 208.171875 150.695312 C 208.566406 150.917969 208.949219 151.113281 209.320312 151.269531 C 209.691406 151.425781 210.046875 151.542969 210.378906 151.625 C 210.710938 151.707031 211.019531 151.75 211.304688 151.753906 C 211.585938 151.753906 211.839844 151.71875 212.0625 151.644531 C 212.28125 151.566406 212.46875 151.453125 212.621094 151.300781 C 212.773438 151.148438 212.886719 150.964844 212.960938 150.742188 C 213.039062 150.519531 213.074219 150.269531 213.070312 149.984375 C 213.070312 149.703125 213.027344 149.394531 212.945312 149.058594 C 212.863281 148.726562 212.746094 148.375 212.585938 148.003906 C 212.429688 147.632812 212.238281 147.246094 212.011719 146.851562 C 211.785156 146.457031 211.53125 146.058594 211.242188 145.65625 C 210.957031 145.253906 210.644531 144.851562 210.304688 144.457031 C 209.96875 144.0625 209.613281 143.675781 209.242188 143.304688 C 208.867188 142.929688 208.484375 142.574219 208.085938 142.238281 C 207.691406 141.902344 207.292969 141.589844 206.886719 141.300781 C 206.484375 141.015625 206.085938 140.757812 205.691406 140.53125 C 205.296875 140.304688 204.914062 140.113281 204.542969 139.957031 C 204.171875 139.800781 203.816406 139.679688 203.484375 139.597656 C 203.152344 139.519531 202.84375 139.476562 202.558594 139.472656 C 202.277344 139.46875 202.023438 139.507812 201.800781 139.582031 C 201.582031 139.65625 201.394531 139.773438 201.242188 139.921875 C 201.089844 140.074219 200.976562 140.261719 200.902344 140.484375 C 200.824219 140.703125 200.789062 140.957031 200.792969 141.242188 C 200.792969 141.523438 200.835938 141.832031 200.917969 142.164062 C 201 142.5 201.117188 142.851562 201.277344 143.222656 C 201.433594 143.59375 201.625 143.976562 201.851562 144.371094 C 202.078125 144.765625 202.332031 145.164062 202.621094 145.570312 C 202.90625 145.972656 203.21875 146.371094 203.558594 146.769531 C 203.894531 147.164062 204.25 147.546875 204.621094 147.921875 Z M 204.621094 147.921875 "/>
<path style=" stroke:none;fill-rule:nonzero;fill:rgb(100%,75.689697%,2.749634%);fill-opacity:1;" d="M 161.5 151.761719 C 161.875 152.136719 162.257812 152.488281 162.652344 152.828125 C 163.050781 153.164062 163.449219 153.476562 163.851562 153.761719 C 164.253906 154.050781 164.65625 154.304688 165.050781 154.53125 C 165.445312 154.757812 165.828125 154.949219 166.199219 155.109375 C 166.570312 155.265625 166.921875 155.382812 167.257812 155.464844 C 167.589844 155.546875 167.898438 155.589844 168.179688 155.589844 C 168.464844 155.59375 168.714844 155.558594 168.9375 155.480469 C 169.160156 155.40625 169.347656 155.292969 169.5 155.140625 C 169.648438 154.988281 169.761719 154.800781 169.839844 154.582031 C 169.914062 154.359375 169.953125 154.105469 169.949219 153.824219 C 169.945312 153.542969 169.902344 153.234375 169.824219 152.898438 C 169.742188 152.566406 169.621094 152.214844 169.464844 151.839844 C 169.308594 151.46875 169.117188 151.085938 168.890625 150.691406 C 168.664062 150.296875 168.40625 149.898438 168.121094 149.496094 C 167.832031 149.09375 167.519531 148.691406 167.183594 148.296875 C 166.847656 147.902344 166.492188 147.515625 166.117188 147.140625 C 165.746094 146.769531 165.359375 146.414062 164.964844 146.078125 C 164.570312 145.738281 164.167969 145.429688 163.765625 145.140625 C 163.363281 144.855469 162.964844 144.597656 162.570312 144.371094 C 162.175781 144.144531 161.789062 143.953125 161.417969 143.796875 C 161.046875 143.640625 160.695312 143.519531 160.363281 143.4375 C 160.027344 143.355469 159.71875 143.316406 159.4375 143.3125 C 159.152344 143.308594 158.902344 143.347656 158.679688 143.421875 C 158.457031 143.496094 158.273438 143.609375 158.121094 143.761719 C 157.96875 143.914062 157.855469 144.101562 157.777344 144.324219 C 157.703125 144.542969 157.667969 144.796875 157.667969 145.078125 C 157.671875 145.363281 157.714844 145.671875 157.796875 146.003906 C 157.878906 146.339844 157.996094 146.691406 158.152344 147.0625 C 158.308594 147.433594 158.5 147.816406 158.726562 148.210938 C 158.953125 148.605469 159.210938 149.003906 159.5 149.410156 C 159.785156 149.8125 160.097656 150.210938 160.433594 150.605469 C 160.769531 151.003906 161.125 151.386719 161.5 151.761719 Z M 161.5 151.761719 "/>
<path style=" stroke:none;fill-rule:nonzero;fill:rgb(100%,75.689697%,2.749634%);fill-opacity:1;" d="M 165.769531 142.886719 C 165.398438 143.257812 165.042969 143.644531 164.703125 144.039062 C 164.367188 144.4375 164.054688 144.835938 163.769531 145.238281 C 163.480469 145.640625 163.226562 146.039062 163 146.433594 C 162.773438 146.832031 162.582031 147.214844 162.425781 147.585938 C 162.265625 147.957031 162.148438 148.308594 162.066406 148.640625 C 161.984375 148.976562 161.941406 149.285156 161.941406 149.566406 C 161.9375 149.851562 161.972656 150.101562 162.050781 150.324219 C 162.125 150.546875 162.238281 150.730469 162.390625 150.882812 C 162.542969 151.035156 162.730469 151.148438 162.949219 151.226562 C 163.171875 151.300781 163.425781 151.335938 163.707031 151.335938 C 163.992188 151.332031 164.300781 151.289062 164.632812 151.207031 C 164.964844 151.125 165.320312 151.007812 165.691406 150.851562 C 166.0625 150.695312 166.445312 150.503906 166.839844 150.277344 C 167.234375 150.050781 167.632812 149.792969 168.035156 149.503906 C 168.441406 149.21875 168.839844 148.90625 169.234375 148.570312 C 169.632812 148.234375 170.015625 147.878906 170.390625 147.503906 C 170.761719 147.128906 171.117188 146.746094 171.453125 146.351562 C 171.792969 145.953125 172.105469 145.554688 172.390625 145.152344 C 172.679688 144.75 172.933594 144.347656 173.160156 143.953125 C 173.386719 143.558594 173.578125 143.175781 173.734375 142.804688 C 173.894531 142.433594 174.011719 142.082031 174.09375 141.746094 C 174.175781 141.414062 174.21875 141.105469 174.21875 140.824219 C 174.222656 140.539062 174.1875 140.289062 174.109375 140.066406 C 174.035156 139.84375 173.921875 139.65625 173.769531 139.503906 C 173.617188 139.355469 173.429688 139.242188 173.210938 139.164062 C 172.988281 139.089844 172.734375 139.050781 172.453125 139.054688 C 172.167969 139.058594 171.859375 139.101562 171.527344 139.179688 C 171.195312 139.261719 170.839844 139.382812 170.46875 139.539062 C 170.097656 139.695312 169.714844 139.886719 169.320312 140.113281 C 168.925781 140.339844 168.527344 140.597656 168.125 140.882812 C 167.71875 141.171875 167.320312 141.484375 166.925781 141.820312 C 166.527344 142.15625 166.144531 142.511719 165.769531 142.886719 Z M 165.769531 142.886719 "/>
<path style=" stroke:none;fill-rule:nonzero;fill:rgb(100%,75.689697%,2.749634%);fill-opacity:1;" d="M 210.554688 101.835938 C 210.179688 101.460938 209.792969 101.105469 209.398438 100.769531 C 209.003906 100.433594 208.601562 100.121094 208.199219 99.832031 C 207.796875 99.546875 207.398438 99.289062 207.003906 99.0625 C 206.609375 98.835938 206.226562 98.644531 205.855469 98.488281 C 205.484375 98.332031 205.128906 98.210938 204.796875 98.132812 C 204.460938 98.050781 204.15625 98.007812 203.871094 98.003906 C 203.589844 98 203.335938 98.039062 203.113281 98.113281 C 202.894531 98.191406 202.707031 98.304688 202.554688 98.457031 C 202.402344 98.605469 202.289062 98.792969 202.214844 99.015625 C 202.136719 99.238281 202.101562 99.488281 202.105469 99.773438 C 202.105469 100.054688 202.148438 100.363281 202.230469 100.695312 C 202.3125 101.03125 202.429688 101.382812 202.589844 101.753906 C 202.746094 102.125 202.9375 102.507812 203.164062 102.902344 C 203.390625 103.296875 203.644531 103.699219 203.933594 104.101562 C 204.21875 104.503906 204.53125 104.902344 204.867188 105.300781 C 205.207031 105.695312 205.5625 106.082031 205.933594 106.453125 C 206.308594 106.828125 206.691406 107.183594 207.089844 107.519531 C 207.484375 107.855469 207.882812 108.167969 208.289062 108.453125 C 208.691406 108.742188 209.089844 109 209.484375 109.226562 C 209.878906 109.453125 210.261719 109.644531 210.632812 109.800781 C 211.003906 109.957031 211.355469 110.074219 211.691406 110.15625 C 212.023438 110.238281 212.332031 110.28125 212.617188 110.285156 C 212.898438 110.285156 213.152344 110.25 213.371094 110.175781 C 213.59375 110.097656 213.78125 109.984375 213.933594 109.832031 C 214.085938 109.683594 214.199219 109.496094 214.273438 109.273438 C 214.351562 109.050781 214.386719 108.800781 214.382812 108.515625 C 214.378906 108.234375 214.339844 107.925781 214.257812 107.589844 C 214.175781 107.257812 214.054688 106.90625 213.898438 106.535156 C 213.742188 106.164062 213.550781 105.78125 213.324219 105.382812 C 213.097656 104.988281 212.839844 104.589844 212.554688 104.1875 C 212.265625 103.785156 211.957031 103.386719 211.617188 102.988281 C 211.28125 102.59375 210.925781 102.207031 210.554688 101.835938 Z M 210.554688 101.835938 "/>
<path style=" stroke:none;fill-rule:nonzero;fill:rgb(100%,75.689697%,2.749634%);fill-opacity:1;" d="M 206.28125 110.710938 C 206.65625 110.335938 207.011719 109.953125 207.347656 109.554688 C 207.683594 109.160156 207.996094 108.761719 208.285156 108.359375 C 208.570312 107.953125 208.828125 107.554688 209.054688 107.160156 C 209.28125 106.765625 209.472656 106.382812 209.628906 106.011719 C 209.785156 105.640625 209.90625 105.289062 209.984375 104.953125 C 210.066406 104.621094 210.109375 104.3125 210.113281 104.027344 C 210.117188 103.746094 210.078125 103.492188 210.003906 103.273438 C 209.925781 103.050781 209.8125 102.863281 209.660156 102.710938 C 209.511719 102.5625 209.324219 102.445312 209.101562 102.371094 C 208.878906 102.296875 208.628906 102.257812 208.34375 102.261719 C 208.0625 102.265625 207.753906 102.304688 207.421875 102.386719 C 207.085938 102.46875 206.734375 102.589844 206.363281 102.746094 C 205.992188 102.902344 205.609375 103.09375 205.214844 103.320312 C 204.820312 103.546875 204.417969 103.804688 204.015625 104.089844 C 203.613281 104.378906 203.214844 104.691406 202.816406 105.027344 C 202.421875 105.363281 202.035156 105.71875 201.664062 106.09375 C 201.289062 106.464844 200.933594 106.851562 200.597656 107.246094 C 200.261719 107.640625 199.949219 108.042969 199.660156 108.445312 C 199.375 108.847656 199.117188 109.246094 198.890625 109.640625 C 198.664062 110.035156 198.472656 110.417969 198.316406 110.792969 C 198.160156 111.164062 198.039062 111.515625 197.960938 111.847656 C 197.878906 112.183594 197.835938 112.492188 197.832031 112.773438 C 197.832031 113.054688 197.867188 113.308594 197.941406 113.53125 C 198.019531 113.753906 198.132812 113.9375 198.285156 114.089844 C 198.433594 114.242188 198.621094 114.355469 198.84375 114.429688 C 199.066406 114.507812 199.316406 114.542969 199.601562 114.542969 C 199.882812 114.539062 200.191406 114.496094 200.527344 114.414062 C 200.859375 114.332031 201.210938 114.214844 201.582031 114.058594 C 201.953125 113.898438 202.335938 113.707031 202.730469 113.480469 C 203.128906 113.257812 203.527344 113 203.929688 112.710938 C 204.332031 112.425781 204.730469 112.113281 205.128906 111.777344 C 205.523438 111.441406 205.910156 111.085938 206.28125 110.710938 Z M 206.28125 110.710938 "/>
<path style=" stroke:none;fill-rule:nonzero;fill:rgb(100%,75.689697%,2.749634%);fill-opacity:1;" d="M 164.445312 101.832031 C 164.074219 102.207031 163.71875 102.59375 163.382812 102.988281 C 163.042969 103.382812 162.730469 103.785156 162.445312 104.1875 C 162.15625 104.589844 161.902344 104.988281 161.675781 105.382812 C 161.449219 105.777344 161.257812 106.160156 161.101562 106.53125 C 160.941406 106.90625 160.824219 107.257812 160.742188 107.589844 C 160.660156 107.925781 160.617188 108.234375 160.617188 108.515625 C 160.613281 108.796875 160.648438 109.050781 160.726562 109.273438 C 160.800781 109.496094 160.914062 109.679688 161.066406 109.832031 C 161.21875 109.984375 161.40625 110.097656 161.625 110.171875 C 161.847656 110.25 162.101562 110.285156 162.382812 110.28125 C 162.667969 110.28125 162.976562 110.238281 163.308594 110.15625 C 163.640625 110.074219 163.996094 109.957031 164.367188 109.800781 C 164.738281 109.640625 165.121094 109.449219 165.515625 109.222656 C 165.910156 108.996094 166.308594 108.742188 166.710938 108.453125 C 167.117188 108.167969 167.515625 107.855469 167.910156 107.519531 C 168.308594 107.179688 168.691406 106.828125 169.066406 106.453125 C 169.4375 106.078125 169.792969 105.695312 170.132812 105.296875 C 170.46875 104.902344 170.78125 104.503906 171.066406 104.101562 C 171.355469 103.695312 171.609375 103.296875 171.835938 102.902344 C 172.0625 102.507812 172.253906 102.125 172.410156 101.753906 C 172.570312 101.382812 172.6875 101.03125 172.769531 100.695312 C 172.851562 100.363281 172.894531 100.054688 172.894531 99.769531 C 172.898438 99.488281 172.863281 99.234375 172.785156 99.015625 C 172.710938 98.792969 172.597656 98.605469 172.445312 98.453125 C 172.292969 98.300781 172.105469 98.1875 171.886719 98.113281 C 171.664062 98.039062 171.410156 98 171.128906 98.003906 C 170.84375 98.007812 170.535156 98.046875 170.203125 98.128906 C 169.871094 98.210938 169.515625 98.332031 169.144531 98.488281 C 168.773438 98.644531 168.390625 98.835938 167.996094 99.0625 C 167.601562 99.289062 167.203125 99.546875 166.800781 99.832031 C 166.394531 100.121094 165.996094 100.429688 165.601562 100.769531 C 165.203125 101.105469 164.820312 101.460938 164.445312 101.832031 Z M 164.445312 101.832031 "/>
<path style=" stroke:none;fill-rule:nonzero;fill:rgb(100%,75.689697%,2.749634%);fill-opacity:1;" d="M 173.324219 106.105469 C 172.949219 105.730469 172.5625 105.375 172.167969 105.039062 C 171.773438 104.703125 171.371094 104.390625 170.96875 104.101562 C 170.566406 103.816406 170.167969 103.558594 169.773438 103.332031 C 169.378906 103.105469 168.996094 102.914062 168.625 102.757812 C 168.25 102.601562 167.898438 102.480469 167.566406 102.402344 C 167.230469 102.320312 166.921875 102.277344 166.640625 102.273438 C 166.359375 102.273438 166.105469 102.308594 165.882812 102.382812 C 165.664062 102.460938 165.476562 102.574219 165.324219 102.726562 C 165.171875 102.875 165.058594 103.0625 164.984375 103.285156 C 164.90625 103.507812 164.871094 103.757812 164.875 104.042969 C 164.875 104.324219 164.917969 104.632812 165 104.96875 C 165.082031 105.300781 165.199219 105.652344 165.355469 106.023438 C 165.515625 106.394531 165.707031 106.777344 165.933594 107.171875 C 166.160156 107.570312 166.414062 107.96875 166.703125 108.371094 C 166.988281 108.773438 167.300781 109.171875 167.636719 109.570312 C 167.976562 109.964844 168.328125 110.351562 168.703125 110.722656 C 169.078125 111.097656 169.460938 111.453125 169.859375 111.789062 C 170.253906 112.125 170.652344 112.4375 171.054688 112.726562 C 171.460938 113.011719 171.859375 113.269531 172.253906 113.496094 C 172.648438 113.722656 173.03125 113.914062 173.402344 114.070312 C 173.773438 114.226562 174.125 114.347656 174.460938 114.425781 C 174.792969 114.507812 175.101562 114.550781 175.386719 114.554688 C 175.667969 114.558594 175.921875 114.519531 176.140625 114.445312 C 176.363281 114.367188 176.550781 114.253906 176.703125 114.101562 C 176.855469 113.953125 176.96875 113.765625 177.042969 113.542969 C 177.117188 113.320312 177.15625 113.070312 177.152344 112.785156 C 177.148438 112.503906 177.109375 112.195312 177.027344 111.863281 C 176.945312 111.527344 176.824219 111.175781 176.667969 110.804688 C 176.511719 110.433594 176.320312 110.050781 176.09375 109.65625 C 175.867188 109.261719 175.609375 108.859375 175.324219 108.457031 C 175.035156 108.054688 174.726562 107.65625 174.386719 107.257812 C 174.050781 106.863281 173.695312 106.476562 173.324219 106.105469 Z M 173.324219 106.105469 "/>
<g clip-path="url(#clip1)" clip-rule="nonzero">
<path style=" stroke:none;fill-rule:nonzero;fill:rgb(100%,75.689697%,2.749634%);fill-opacity:1;" d="M 187.445312 43.9375 C 141.34375 43.9375 103.820312 81.464844 103.820312 127.5625 C 103.820312 173.660156 141.34375 211.1875 187.445312 211.1875 C 233.542969 211.1875 271.070312 173.660156 271.070312 127.5625 C 271.070312 81.464844 233.542969 43.9375 187.445312 43.9375 Z M 187.445312 58.480469 C 225.683594 58.480469 256.527344 89.324219 256.527344 127.5625 C 256.527344 165.800781 225.683594 196.644531 187.445312 196.644531 C 149.207031 196.644531 118.363281 165.800781 118.363281 127.5625 C 118.363281 89.324219 149.207031 58.480469 187.445312 58.480469 Z M 187.445312 58.480469 "/>
</g>
<g clip-path="url(#clip2)" clip-rule="nonzero">
<path style=" stroke:none;fill-rule:nonzero;fill:rgb(100%,75.689697%,2.749634%);fill-opacity:1;" d="M 187.316406 49.433594 C 144.316406 49.433594 109.316406 84.4375 109.316406 127.433594 C 109.316406 170.433594 144.316406 205.433594 187.316406 205.433594 C 230.3125 205.433594 265.316406 170.433594 265.316406 127.433594 C 265.316406 84.4375 230.3125 49.433594 187.316406 49.433594 Z M 187.316406 63 C 222.984375 63 251.75 91.769531 251.75 127.433594 C 251.75 163.101562 222.984375 191.871094 187.316406 191.871094 C 151.648438 191.871094 122.882812 163.101562 122.882812 127.433594 C 122.882812 91.769531 151.648438 63 187.316406 63 Z M 187.316406 63 "/>
</g>
<path style=" stroke:none;fill-rule:nonzero;fill:rgb(100%,75.689697%,2.749634%);fill-opacity:1;" d="M 200.058594 208.960938 L 200.058594 233.234375 L 175.304688 233.234375 L 175.304688 208.960938 Z M 200.058594 208.960938 "/>
<path style=" stroke:none;fill-rule:nonzero;fill:rgb(100%,75.689697%,2.749634%);fill-opacity:1;" d="M 208.460938 241.328125 L 208.460938 312.289062 L 166.4375 312.289062 L 166.4375 241.328125 Z M 208.460938 241.328125 "/>
<path style=" stroke:none;fill-rule:nonzero;fill:rgb(100%,75.689697%,2.749634%);fill-opacity:1;" d="M 166.519531 331.0625 L 166.519531 311.484375 L 208.460938 311.484375 Z M 166.519531 331.0625 "/>
<path style=" stroke:none;fill-rule:nonzero;fill:rgb(100%,75.689697%,2.749634%);fill-opacity:1;" d="M 192.855469 222.671875 L 192.855469 233.210938 L 166.054688 233.210938 L 166.054688 222.671875 Z M 192.855469 222.671875 "/>
<path style=" stroke:none;fill-rule:nonzero;fill:rgb(100%,75.689697%,2.749634%);fill-opacity:1;" d="M 209.210938 222.671875 L 209.210938 233.210938 L 182.40625 233.210938 L 182.40625 222.671875 Z M 209.210938 222.671875 "/>
</g>
</svg>
